<svg id="svg" version="1.1" width="400" height="285.7142857142857" xmlns="http://www.w3.org/2000/svg" xmlns:xlink="http://www.w3.org/1999/xlink" style="display: block;"><g id="svgg"><path id="path0" d="M28.571 2.714 L 28.571 5.429 24.143 5.429 C 21.381 5.429,19.714 5.536,19.714 5.714 C 19.714 5.871,19.136 6.000,18.429 6.000 C 17.721 6.000,17.143 6.129,17.143 6.286 C 17.143 6.443,16.886 6.571,16.571 6.571 C 16.190 6.571,16.000 6.762,16.000 7.143 C 16.000 7.457,15.871 7.714,15.714 7.714 C 15.557 7.714,15.429 8.229,15.429 8.857 C 15.429 9.486,15.300 10.000,15.143 10.000 C 14.975 10.000,14.857 11.000,14.857 12.429 L 14.857 14.857 12.857 14.857 C 11.714 14.857,10.857 14.980,10.857 15.143 C 10.857 15.300,10.210 15.429,9.419 15.429 C 7.332 15.429,6.000 16.761,6.000 18.848 C 6.000 19.639,5.871 20.286,5.714 20.286 C 5.532 20.286,5.429 22.762,5.429 27.143 L 5.429 34.000 2.714 34.000 L 0.000 34.000 0.000 142.286 L 0.000 250.571 2.714 250.571 L 5.429 250.571 5.429 254.714 C 5.429 257.286,5.537 258.857,5.714 258.857 C 5.871 258.857,6.000 259.243,6.000 259.714 C 6.000 260.186,6.129 260.571,6.286 260.571 C 6.443 260.571,6.571 260.764,6.571 261.000 C 6.571 261.286,6.857 261.429,7.429 261.429 C 7.900 261.429,8.286 261.557,8.286 261.714 C 8.286 261.888,9.571 262.000,11.571 262.000 L 14.857 262.000 14.857 265.571 C 14.857 267.762,14.968 269.143,15.143 269.143 C 15.300 269.143,15.429 269.345,15.429 269.592 C 15.429 270.169,16.116 270.857,16.694 270.857 C 16.941 270.857,17.143 270.986,17.143 271.143 C 17.143 271.318,18.524 271.429,20.714 271.429 C 22.905 271.429,24.286 271.539,24.286 271.714 C 24.286 271.871,24.479 272.000,24.714 272.000 C 25.062 272.000,25.143 272.460,25.143 274.429 C 25.143 275.857,25.261 276.857,25.429 276.857 C 25.586 276.857,25.714 277.114,25.714 277.429 C 25.714 277.743,25.843 278.000,26.000 278.000 C 26.157 278.000,26.286 278.257,26.286 278.571 C 26.286 278.952,26.476 279.143,26.857 279.143 C 27.171 279.143,27.429 279.271,27.429 279.429 C 27.429 279.586,27.686 279.714,28.000 279.714 C 28.314 279.714,28.571 279.843,28.571 280.000 C 28.571 280.168,29.571 280.286,31.000 280.286 C 32.429 280.286,33.429 280.403,33.429 280.571 C 33.429 280.760,42.333 280.857,59.571 280.857 L 85.714 280.857 85.714 283.286 L 85.714 285.714 197.857 285.714 L 310.000 285.714 310.000 283.286 L 310.000 280.857 338.286 280.857 C 356.952 280.857,366.571 280.760,366.571 280.571 C 366.571 280.406,367.476 280.286,368.714 280.286 C 369.952 280.286,370.857 280.165,370.857 280.000 C 370.857 279.843,371.243 279.714,371.714 279.714 C 372.186 279.714,372.571 279.586,372.571 279.429 C 372.571 279.271,372.773 279.143,373.020 279.143 C 373.598 279.143,374.286 278.455,374.286 277.878 C 374.286 277.631,374.479 277.429,374.714 277.429 C 375.000 277.429,375.143 277.143,375.143 276.571 C 375.143 276.100,375.271 275.714,375.429 275.714 C 375.594 275.714,375.714 274.810,375.714 273.571 L 375.714 271.429 379.286 271.429 C 381.476 271.429,382.857 271.318,382.857 271.143 C 382.857 270.986,383.188 270.857,383.592 270.857 C 383.996 270.857,384.510 270.673,384.735 270.449 C 384.959 270.224,385.143 269.710,385.143 269.306 C 385.143 268.902,385.271 268.571,385.429 268.571 C 385.602 268.571,385.714 267.286,385.714 265.286 L 385.714 262.000 388.714 262.000 C 390.524 262.000,391.714 261.887,391.714 261.714 C 391.714 261.557,392.100 261.429,392.571 261.429 C 393.077 261.429,393.429 261.279,393.429 261.063 C 393.429 260.862,393.686 260.512,394.000 260.286 C 394.336 260.044,394.571 259.546,394.571 259.080 C 394.571 258.643,394.700 258.286,394.857 258.286 C 395.040 258.286,395.143 255.619,395.143 250.857 L 395.143 243.429 397.571 243.429 L 400.000 243.429 400.000 138.714 L 400.000 34.000 397.571 34.000 L 395.143 34.000 395.143 27.714 C 395.143 23.714,395.039 21.429,394.857 21.429 C 394.696 21.429,394.571 20.619,394.571 19.571 C 394.571 18.524,394.447 17.714,394.286 17.714 C 394.129 17.714,394.000 17.512,394.000 17.265 C 394.000 16.688,393.312 16.000,392.735 16.000 C 392.488 16.000,392.286 15.871,392.286 15.714 C 392.286 15.553,391.476 15.429,390.429 15.429 C 389.381 15.429,388.571 15.304,388.571 15.143 C 388.571 14.986,387.929 14.857,387.143 14.857 L 385.714 14.857 385.714 12.714 C 385.714 11.476,385.594 10.571,385.429 10.571 C 385.271 10.571,385.143 9.989,385.143 9.276 C 385.143 7.341,383.743 6.000,381.724 6.000 C 380.933 6.000,380.286 5.871,380.286 5.714 C 380.286 5.537,378.714 5.429,376.143 5.429 L 372.000 5.429 372.000 2.714 L 372.000 0.000 200.286 0.000 L 28.571 0.000 28.571 2.714 M157.714 83.571 C 157.714 85.190,157.830 86.286,158.000 86.286 C 158.157 86.286,158.286 86.772,158.286 87.365 C 158.286 88.118,158.459 88.570,158.857 88.857 C 159.171 89.084,159.429 89.433,159.429 89.635 C 159.429 89.877,159.861 90.000,160.714 90.000 C 161.421 90.000,162.000 90.129,162.000 90.286 C 162.000 90.469,164.667 90.571,169.429 90.571 L 176.857 90.571 176.857 93.429 C 176.857 95.143,176.971 96.286,177.143 96.286 C 177.300 96.286,177.429 96.677,177.429 97.156 C 177.429 98.234,178.548 99.429,179.558 99.429 C 179.958 99.429,180.286 99.557,180.286 99.714 C 180.286 99.894,182.147 100.000,185.299 100.000 C 190.533 100.000,191.714 100.318,191.714 101.730 C 191.714 101.909,192.100 102.417,192.571 102.857 C 193.043 103.298,193.429 103.799,193.429 103.972 C 193.429 104.144,193.627 104.286,193.870 104.286 C 194.697 104.286,195.714 105.618,195.714 106.701 C 195.714 107.334,195.852 107.714,196.080 107.714 C 196.281 107.714,196.631 107.971,196.857 108.286 C 197.099 108.621,197.597 108.857,198.063 108.857 C 198.500 108.857,198.857 108.986,198.857 109.143 C 198.857 109.322,200.619 109.429,203.571 109.429 C 208.095 109.429,208.286 109.452,208.286 110.000 C 208.286 110.314,208.414 110.571,208.571 110.571 C 208.729 110.571,208.857 110.893,208.857 111.286 C 208.857 111.679,208.986 112.000,209.143 112.000 C 209.300 112.000,209.429 112.202,209.429 112.449 C 209.429 112.929,210.086 113.714,210.488 113.714 C 210.622 113.714,210.916 113.971,211.143 114.286 C 211.369 114.600,211.783 114.857,212.063 114.857 C 212.343 114.857,212.571 114.986,212.571 115.143 C 212.571 115.300,212.829 115.429,213.143 115.429 C 213.457 115.429,213.714 115.557,213.714 115.714 C 213.714 115.871,213.971 116.000,214.286 116.000 C 214.730 116.000,214.857 116.190,214.857 116.857 C 214.857 117.329,214.986 117.714,215.143 117.714 C 215.300 117.714,215.429 117.907,215.429 118.143 C 215.429 118.429,215.714 118.571,216.286 118.571 C 216.757 118.571,217.143 118.700,217.143 118.857 C 217.143 119.036,218.857 119.143,221.714 119.143 L 226.286 119.143 226.286 120.286 C 226.286 120.914,226.414 121.429,226.571 121.429 C 226.729 121.429,226.857 121.686,226.857 122.000 C 226.857 122.314,226.986 122.571,227.143 122.571 C 227.300 122.571,227.429 122.777,227.429 123.028 C 227.429 123.279,227.814 123.845,228.286 124.286 C 228.757 124.726,229.143 125.228,229.143 125.400 C 229.143 125.573,229.400 125.714,229.714 125.714 C 230.029 125.714,230.286 125.843,230.286 126.000 C 230.286 126.157,230.543 126.286,230.857 126.286 C 231.171 126.286,231.429 126.414,231.429 126.571 C 231.429 126.729,232.007 126.857,232.714 126.857 C 233.810 126.857,234.000 126.942,234.000 127.429 C 234.000 127.873,234.190 128.000,234.857 128.000 C 235.329 128.000,235.714 128.129,235.714 128.286 C 235.714 128.464,237.381 128.571,240.143 128.571 L 244.571 128.571 244.571 129.714 C 244.571 130.343,244.700 130.857,244.857 130.857 C 245.014 130.857,245.143 131.307,245.143 131.857 C 245.143 132.407,245.271 132.857,245.429 132.857 C 245.586 132.857,245.714 133.114,245.714 133.429 C 245.714 133.743,245.856 134.000,246.028 134.000 C 246.201 134.000,246.702 134.386,247.143 134.857 C 247.583 135.329,248.149 135.714,248.400 135.714 C 248.652 135.714,248.857 135.843,248.857 136.000 C 248.857 136.157,249.243 136.286,249.714 136.286 C 250.186 136.286,250.571 136.414,250.571 136.571 C 250.571 136.729,251.086 136.857,251.714 136.857 C 252.667 136.857,252.857 136.952,252.857 137.429 C 252.857 137.746,253.048 138.000,253.286 138.000 C 253.521 138.000,253.714 138.129,253.714 138.286 C 253.714 138.465,251.905 138.571,248.857 138.571 C 245.810 138.571,244.000 138.678,244.000 138.857 C 244.000 139.014,243.357 139.143,242.571 139.143 C 241.492 139.143,241.143 139.248,241.143 139.571 C 241.143 139.889,240.810 140.000,239.857 140.000 C 239.150 140.000,238.571 140.129,238.571 140.286 C 238.571 140.443,238.374 140.571,238.133 140.571 C 237.565 140.571,235.714 142.422,235.714 142.990 C 235.714 143.231,235.586 143.429,235.429 143.429 C 235.271 143.429,235.143 143.943,235.143 144.571 C 235.143 145.200,235.014 145.714,234.857 145.714 C 234.700 145.714,234.571 146.293,234.571 147.000 L 234.571 148.286 230.143 148.286 C 227.381 148.286,225.714 148.393,225.714 148.571 C 225.714 148.729,225.264 148.857,224.714 148.857 C 224.164 148.857,223.714 148.986,223.714 149.143 C 223.714 149.300,223.071 149.429,222.286 149.429 C 221.500 149.429,220.857 149.557,220.857 149.714 C 220.857 149.871,220.500 150.000,220.063 150.000 C 219.597 150.000,219.099 150.236,218.857 150.571 C 218.631 150.886,218.339 151.143,218.210 151.143 C 217.621 151.143,216.571 152.600,216.571 153.416 C 216.571 153.894,216.443 154.286,216.286 154.286 C 216.129 154.286,216.000 154.873,216.000 155.592 C 216.000 157.640,215.820 157.714,210.878 157.714 C 208.197 157.714,206.571 157.822,206.571 158.000 C 206.571 158.157,206.314 158.286,206.000 158.286 C 205.686 158.286,205.429 158.414,205.429 158.571 C 205.429 158.729,205.171 158.857,204.857 158.857 C 204.543 158.857,204.286 158.986,204.286 159.143 C 204.286 159.300,203.707 159.429,203.000 159.429 C 202.293 159.429,201.714 159.557,201.714 159.714 C 201.714 159.871,201.512 160.000,201.265 160.000 C 200.815 160.000,200.000 160.649,200.000 161.008 C 200.000 161.113,199.614 161.560,199.143 162.000 C 198.671 162.440,198.286 163.006,198.286 163.257 C 198.286 163.509,198.157 163.714,198.000 163.714 C 197.843 163.714,197.714 164.229,197.714 164.857 C 197.714 165.486,197.586 166.000,197.429 166.000 C 197.271 166.000,197.143 166.257,197.143 166.571 C 197.143 167.119,196.952 167.143,192.571 167.143 C 189.714 167.143,188.000 167.250,188.000 167.429 C 188.000 167.586,187.743 167.714,187.429 167.714 C 187.114 167.714,186.857 167.849,186.857 168.013 C 186.857 168.588,185.448 169.714,184.727 169.714 C 184.327 169.714,184.000 169.843,184.000 170.000 C 184.000 170.157,183.771 170.286,183.492 170.286 C 183.212 170.286,182.798 170.543,182.571 170.857 C 182.345 171.171,181.867 171.429,181.508 171.429 C 181.075 171.429,180.857 171.598,180.857 171.937 C 180.857 172.217,180.600 172.631,180.286 172.857 C 179.971 173.084,179.714 173.498,179.714 173.777 C 179.714 174.057,179.586 174.286,179.429 174.286 C 179.271 174.286,179.143 174.681,179.143 175.163 C 179.143 176.735,178.774 176.857,174.020 176.857 C 171.340 176.857,169.714 176.965,169.714 177.143 C 169.714 177.300,169.329 177.429,168.857 177.429 C 168.386 177.429,168.000 177.557,168.000 177.714 C 168.000 177.871,167.807 178.000,167.571 178.000 C 167.286 178.000,167.143 178.286,167.143 178.857 C 167.143 179.524,167.016 179.714,166.571 179.714 C 166.257 179.714,166.000 179.843,166.000 180.000 C 166.000 180.157,165.743 180.286,165.429 180.286 C 165.114 180.286,164.857 180.414,164.857 180.571 C 164.857 180.729,164.658 180.857,164.416 180.857 C 163.918 180.857,162.571 182.100,162.571 182.558 C 162.571 182.723,162.443 182.857,162.286 182.857 C 162.129 182.857,162.000 183.114,162.000 183.429 C 162.000 183.743,161.871 184.000,161.714 184.000 C 161.557 184.000,161.429 184.257,161.429 184.571 C 161.429 184.886,161.300 185.143,161.143 185.143 C 160.986 185.143,160.857 185.400,160.857 185.714 C 160.857 186.227,160.667 186.286,159.000 186.286 L 157.143 186.286 157.143 133.571 C 157.143 98.619,157.239 80.857,157.429 80.857 C 157.599 80.857,157.714 81.952,157.714 83.571 " stroke="none" fill="#ffffff" fill-rule="evenodd"></path><path id="path1" d="M28.571 2.714 L 28.571 5.429 24.143 5.429 C 21.381 5.429,19.714 5.536,19.714 5.714 C 19.714 5.871,19.136 6.000,18.429 6.000 C 17.721 6.000,17.143 6.129,17.143 6.286 C 17.143 6.443,16.886 6.571,16.571 6.571 C 16.190 6.571,16.000 6.762,16.000 7.143 C 16.000 7.457,15.871 7.714,15.714 7.714 C 15.557 7.714,15.429 8.229,15.429 8.857 C 15.429 9.486,15.300 10.000,15.143 10.000 C 14.975 10.000,14.857 11.000,14.857 12.429 L 14.857 14.857 12.857 14.857 C 11.714 14.857,10.857 14.980,10.857 15.143 C 10.857 15.300,10.210 15.429,9.419 15.429 C 7.332 15.429,6.000 16.761,6.000 18.848 C 6.000 19.639,5.871 20.286,5.714 20.286 C 5.532 20.286,5.429 22.762,5.429 27.143 L 5.429 34.000 2.714 34.000 L 0.000 34.000 0.000 142.286 L 0.000 250.571 2.714 250.571 L 5.429 250.571 5.429 254.714 C 5.429 257.286,5.537 258.857,5.714 258.857 C 5.871 258.857,6.000 259.243,6.000 259.714 C 6.000 260.186,6.129 260.571,6.286 260.571 C 6.443 260.571,6.571 260.764,6.571 261.000 C 6.571 261.286,6.857 261.429,7.429 261.429 C 7.900 261.429,8.286 261.557,8.286 261.714 C 8.286 261.888,9.571 262.000,11.571 262.000 L 14.857 262.000 14.857 265.571 C 14.857 267.762,14.968 269.143,15.143 269.143 C 15.300 269.143,15.429 269.345,15.429 269.592 C 15.429 270.169,16.116 270.857,16.694 270.857 C 16.941 270.857,17.143 270.986,17.143 271.143 C 17.143 271.318,18.524 271.429,20.714 271.429 C 22.905 271.429,24.286 271.539,24.286 271.714 C 24.286 271.871,24.479 272.000,24.714 272.000 C 25.062 272.000,25.143 272.460,25.143 274.429 C 25.143 275.857,25.261 276.857,25.429 276.857 C 25.586 276.857,25.714 277.114,25.714 277.429 C 25.714 277.743,25.843 278.000,26.000 278.000 C 26.157 278.000,26.286 278.257,26.286 278.571 C 26.286 278.952,26.476 279.143,26.857 279.143 C 27.171 279.143,27.429 279.271,27.429 279.429 C 27.429 279.586,27.686 279.714,28.000 279.714 C 28.314 279.714,28.571 279.843,28.571 280.000 C 28.571 280.168,29.571 280.286,31.000 280.286 C 32.429 280.286,33.429 280.403,33.429 280.571 C 33.429 280.760,42.333 280.857,59.571 280.857 L 85.714 280.857 85.714 283.286 L 85.714 285.714 197.857 285.714 L 310.000 285.714 310.000 283.286 L 310.000 280.857 338.286 280.857 C 356.952 280.857,366.571 280.760,366.571 280.571 C 366.571 280.406,367.476 280.286,368.714 280.286 C 369.952 280.286,370.857 280.165,370.857 280.000 C 370.857 279.843,371.243 279.714,371.714 279.714 C 372.186 279.714,372.571 279.586,372.571 279.429 C 372.571 279.271,372.773 279.143,373.020 279.143 C 373.598 279.143,374.286 278.455,374.286 277.878 C 374.286 277.631,374.479 277.429,374.714 277.429 C 375.000 277.429,375.143 277.143,375.143 276.571 C 375.143 276.100,375.271 275.714,375.429 275.714 C 375.594 275.714,375.714 274.810,375.714 273.571 L 375.714 271.429 379.286 271.429 C 381.476 271.429,382.857 271.318,382.857 271.143 C 382.857 270.986,383.188 270.857,383.592 270.857 C 383.996 270.857,384.510 270.673,384.735 270.449 C 384.959 270.224,385.143 269.710,385.143 269.306 C 385.143 268.902,385.271 268.571,385.429 268.571 C 385.602 268.571,385.714 267.286,385.714 265.286 L 385.714 262.000 388.714 262.000 C 390.524 262.000,391.714 261.887,391.714 261.714 C 391.714 261.557,392.100 261.429,392.571 261.429 C 393.077 261.429,393.429 261.279,393.429 261.063 C 393.429 260.862,393.686 260.512,394.000 260.286 C 394.336 260.044,394.571 259.546,394.571 259.080 C 394.571 258.643,394.700 258.286,394.857 258.286 C 395.040 258.286,395.143 255.619,395.143 250.857 L 395.143 243.429 397.571 243.429 L 400.000 243.429 400.000 138.714 L 400.000 34.000 397.571 34.000 L 395.143 34.000 395.143 27.714 C 395.143 23.714,395.039 21.429,394.857 21.429 C 394.696 21.429,394.571 20.619,394.571 19.571 C 394.571 18.524,394.447 17.714,394.286 17.714 C 394.129 17.714,394.000 17.512,394.000 17.265 C 394.000 16.688,393.312 16.000,392.735 16.000 C 392.488 16.000,392.286 15.871,392.286 15.714 C 392.286 15.553,391.476 15.429,390.429 15.429 C 389.381 15.429,388.571 15.304,388.571 15.143 C 388.571 14.986,387.929 14.857,387.143 14.857 L 385.714 14.857 385.714 12.714 C 385.714 11.476,385.594 10.571,385.429 10.571 C 385.271 10.571,385.143 9.989,385.143 9.276 C 385.143 7.341,383.743 6.000,381.724 6.000 C 380.933 6.000,380.286 5.871,380.286 5.714 C 380.286 5.537,378.714 5.429,376.143 5.429 L 372.000 5.429 372.000 2.714 L 372.000 0.000 200.286 0.000 L 28.571 0.000 28.571 2.714 M157.714 83.571 C 157.714 85.190,157.830 86.286,158.000 86.286 C 158.157 86.286,158.286 86.772,158.286 87.365 C 158.286 88.118,158.459 88.570,158.857 88.857 C 159.171 89.084,159.429 89.433,159.429 89.635 C 159.429 89.877,159.861 90.000,160.714 90.000 C 161.421 90.000,162.000 90.129,162.000 90.286 C 162.000 90.469,164.667 90.571,169.429 90.571 L 176.857 90.571 176.857 93.429 C 176.857 95.143,176.971 96.286,177.143 96.286 C 177.300 96.286,177.429 96.677,177.429 97.156 C 177.429 98.234,178.548 99.429,179.558 99.429 C 179.958 99.429,180.286 99.557,180.286 99.714 C 180.286 99.894,182.147 100.000,185.299 100.000 C 190.533 100.000,191.714 100.318,191.714 101.730 C 191.714 101.909,192.100 102.417,192.571 102.857 C 193.043 103.298,193.429 103.799,193.429 103.972 C 193.429 104.144,193.627 104.286,193.870 104.286 C 194.697 104.286,195.714 105.618,195.714 106.701 C 195.714 107.334,195.852 107.714,196.080 107.714 C 196.281 107.714,196.631 107.971,196.857 108.286 C 197.099 108.621,197.597 108.857,198.063 108.857 C 198.500 108.857,198.857 108.986,198.857 109.143 C 198.857 109.322,200.619 109.429,203.571 109.429 C 208.095 109.429,208.286 109.452,208.286 110.000 C 208.286 110.314,208.414 110.571,208.571 110.571 C 208.729 110.571,208.857 110.893,208.857 111.286 C 208.857 111.679,208.986 112.000,209.143 112.000 C 209.300 112.000,209.429 112.202,209.429 112.449 C 209.429 112.929,210.086 113.714,210.488 113.714 C 210.622 113.714,210.916 113.971,211.143 114.286 C 211.369 114.600,211.783 114.857,212.063 114.857 C 212.343 114.857,212.571 114.986,212.571 115.143 C 212.571 115.300,212.829 115.429,213.143 115.429 C 213.457 115.429,213.714 115.557,213.714 115.714 C 213.714 115.871,213.971 116.000,214.286 116.000 C 214.730 116.000,214.857 116.190,214.857 116.857 C 214.857 117.329,214.986 117.714,215.143 117.714 C 215.300 117.714,215.429 117.907,215.429 118.143 C 215.429 118.429,215.714 118.571,216.286 118.571 C 216.757 118.571,217.143 118.700,217.143 118.857 C 217.143 119.036,218.857 119.143,221.714 119.143 L 226.286 119.143 226.286 120.286 C 226.286 120.914,226.414 121.429,226.571 121.429 C 226.729 121.429,226.857 121.686,226.857 122.000 C 226.857 122.314,226.986 122.571,227.143 122.571 C 227.300 122.571,227.429 122.777,227.429 123.028 C 227.429 123.279,227.814 123.845,228.286 124.286 C 228.757 124.726,229.143 125.228,229.143 125.400 C 229.143 125.573,229.400 125.714,229.714 125.714 C 230.029 125.714,230.286 125.843,230.286 126.000 C 230.286 126.157,230.543 126.286,230.857 126.286 C 231.171 126.286,231.429 126.414,231.429 126.571 C 231.429 126.729,232.007 126.857,232.714 126.857 C 233.810 126.857,234.000 126.942,234.000 127.429 C 234.000 127.873,234.190 128.000,234.857 128.000 C 235.329 128.000,235.714 128.129,235.714 128.286 C 235.714 128.464,237.381 128.571,240.143 128.571 L 244.571 128.571 244.571 129.714 C 244.571 130.343,244.700 130.857,244.857 130.857 C 245.014 130.857,245.143 131.307,245.143 131.857 C 245.143 132.407,245.271 132.857,245.429 132.857 C 245.586 132.857,245.714 133.114,245.714 133.429 C 245.714 133.743,245.856 134.000,246.028 134.000 C 246.201 134.000,246.702 134.386,247.143 134.857 C 247.583 135.329,248.149 135.714,248.400 135.714 C 248.652 135.714,248.857 135.843,248.857 136.000 C 248.857 136.157,249.243 136.286,249.714 136.286 C 250.186 136.286,250.571 136.414,250.571 136.571 C 250.571 136.729,251.086 136.857,251.714 136.857 C 252.667 136.857,252.857 136.952,252.857 137.429 C 252.857 137.746,253.048 138.000,253.286 138.000 C 253.521 138.000,253.714 138.129,253.714 138.286 C 253.714 138.465,251.905 138.571,248.857 138.571 C 245.810 138.571,244.000 138.678,244.000 138.857 C 244.000 139.014,243.357 139.143,242.571 139.143 C 241.492 139.143,241.143 139.248,241.143 139.571 C 241.143 139.889,240.810 140.000,239.857 140.000 C 239.150 140.000,238.571 140.129,238.571 140.286 C 238.571 140.443,238.374 140.571,238.133 140.571 C 237.565 140.571,235.714 142.422,235.714 142.990 C 235.714 143.231,235.586 143.429,235.429 143.429 C 235.271 143.429,235.143 143.943,235.143 144.571 C 235.143 145.200,235.014 145.714,234.857 145.714 C 234.700 145.714,234.571 146.293,234.571 147.000 L 234.571 148.286 230.143 148.286 C 227.381 148.286,225.714 148.393,225.714 148.571 C 225.714 148.729,225.264 148.857,224.714 148.857 C 224.164 148.857,223.714 148.986,223.714 149.143 C 223.714 149.300,223.071 149.429,222.286 149.429 C 221.500 149.429,220.857 149.557,220.857 149.714 C 220.857 149.871,220.500 150.000,220.063 150.000 C 219.597 150.000,219.099 150.236,218.857 150.571 C 218.631 150.886,218.339 151.143,218.210 151.143 C 217.621 151.143,216.571 152.600,216.571 153.416 C 216.571 153.894,216.443 154.286,216.286 154.286 C 216.129 154.286,216.000 154.873,216.000 155.592 C 216.000 157.640,215.820 157.714,210.878 157.714 C 208.197 157.714,206.571 157.822,206.571 158.000 C 206.571 158.157,206.314 158.286,206.000 158.286 C 205.686 158.286,205.429 158.414,205.429 158.571 C 205.429 158.729,205.171 158.857,204.857 158.857 C 204.543 158.857,204.286 158.986,204.286 159.143 C 204.286 159.300,203.707 159.429,203.000 159.429 C 202.293 159.429,201.714 159.557,201.714 159.714 C 201.714 159.871,201.512 160.000,201.265 160.000 C 200.815 160.000,200.000 160.649,200.000 161.008 C 200.000 161.113,199.614 161.560,199.143 162.000 C 198.671 162.440,198.286 163.006,198.286 163.257 C 198.286 163.509,198.157 163.714,198.000 163.714 C 197.843 163.714,197.714 164.229,197.714 164.857 C 197.714 165.486,197.586 166.000,197.429 166.000 C 197.271 166.000,197.143 166.257,197.143 166.571 C 197.143 167.119,196.952 167.143,192.571 167.143 C 189.714 167.143,188.000 167.250,188.000 167.429 C 188.000 167.586,187.743 167.714,187.429 167.714 C 187.114 167.714,186.857 167.849,186.857 168.013 C 186.857 168.588,185.448 169.714,184.727 169.714 C 184.327 169.714,184.000 169.843,184.000 170.000 C 184.000 170.157,183.771 170.286,183.492 170.286 C 183.212 170.286,182.798 170.543,182.571 170.857 C 182.345 171.171,181.867 171.429,181.508 171.429 C 181.075 171.429,180.857 171.598,180.857 171.937 C 180.857 172.217,180.600 172.631,180.286 172.857 C 179.971 173.084,179.714 173.498,179.714 173.777 C 179.714 174.057,179.586 174.286,179.429 174.286 C 179.271 174.286,179.143 174.681,179.143 175.163 C 179.143 176.735,178.774 176.857,174.020 176.857 C 171.340 176.857,169.714 176.965,169.714 177.143 C 169.714 177.300,169.329 177.429,168.857 177.429 C 168.386 177.429,168.000 177.557,168.000 177.714 C 168.000 177.871,167.807 178.000,167.571 178.000 C 167.286 178.000,167.143 178.286,167.143 178.857 C 167.143 179.524,167.016 179.714,166.571 179.714 C 166.257 179.714,166.000 179.843,166.000 180.000 C 166.000 180.157,165.743 180.286,165.429 180.286 C 165.114 180.286,164.857 180.414,164.857 180.571 C 164.857 180.729,164.658 180.857,164.416 180.857 C 163.918 180.857,162.571 182.100,162.571 182.558 C 162.571 182.723,162.443 182.857,162.286 182.857 C 162.129 182.857,162.000 183.114,162.000 183.429 C 162.000 183.743,161.871 184.000,161.714 184.000 C 161.557 184.000,161.429 184.257,161.429 184.571 C 161.429 184.886,161.300 185.143,161.143 185.143 C 160.986 185.143,160.857 185.400,160.857 185.714 C 160.857 186.227,160.667 186.286,159.000 186.286 L 157.143 186.286 157.143 133.571 C 157.143 98.619,157.239 80.857,157.429 80.857 C 157.599 80.857,157.714 81.952,157.714 83.571 " stroke="none" fill="#ffffff" fill-rule="evenodd"></path><path id="path2" d="M28.571 2.714 L 28.571 5.429 24.143 5.429 C 21.381 5.429,19.714 5.536,19.714 5.714 C 19.714 5.871,19.136 6.000,18.429 6.000 C 17.721 6.000,17.143 6.129,17.143 6.286 C 17.143 6.443,16.886 6.571,16.571 6.571 C 16.190 6.571,16.000 6.762,16.000 7.143 C 16.000 7.457,15.871 7.714,15.714 7.714 C 15.557 7.714,15.429 8.229,15.429 8.857 C 15.429 9.486,15.300 10.000,15.143 10.000 C 14.975 10.000,14.857 11.000,14.857 12.429 L 14.857 14.857 12.857 14.857 C 11.714 14.857,10.857 14.980,10.857 15.143 C 10.857 15.300,10.210 15.429,9.419 15.429 C 7.332 15.429,6.000 16.761,6.000 18.848 C 6.000 19.639,5.871 20.286,5.714 20.286 C 5.532 20.286,5.429 22.762,5.429 27.143 L 5.429 34.000 2.714 34.000 L 0.000 34.000 0.000 142.286 L 0.000 250.571 2.714 250.571 L 5.429 250.571 5.429 254.714 C 5.429 257.286,5.537 258.857,5.714 258.857 C 5.871 258.857,6.000 259.243,6.000 259.714 C 6.000 260.186,6.129 260.571,6.286 260.571 C 6.443 260.571,6.571 260.764,6.571 261.000 C 6.571 261.286,6.857 261.429,7.429 261.429 C 7.900 261.429,8.286 261.557,8.286 261.714 C 8.286 261.888,9.571 262.000,11.571 262.000 L 14.857 262.000 14.857 265.571 C 14.857 267.762,14.968 269.143,15.143 269.143 C 15.300 269.143,15.429 269.345,15.429 269.592 C 15.429 270.169,16.116 270.857,16.694 270.857 C 16.941 270.857,17.143 270.986,17.143 271.143 C 17.143 271.318,18.524 271.429,20.714 271.429 C 22.905 271.429,24.286 271.539,24.286 271.714 C 24.286 271.871,24.479 272.000,24.714 272.000 C 25.062 272.000,25.143 272.460,25.143 274.429 C 25.143 275.857,25.261 276.857,25.429 276.857 C 25.586 276.857,25.714 277.114,25.714 277.429 C 25.714 277.743,25.843 278.000,26.000 278.000 C 26.157 278.000,26.286 278.257,26.286 278.571 C 26.286 278.952,26.476 279.143,26.857 279.143 C 27.171 279.143,27.429 279.271,27.429 279.429 C 27.429 279.586,27.686 279.714,28.000 279.714 C 28.314 279.714,28.571 279.843,28.571 280.000 C 28.571 280.168,29.571 280.286,31.000 280.286 C 32.429 280.286,33.429 280.403,33.429 280.571 C 33.429 280.760,42.333 280.857,59.571 280.857 L 85.714 280.857 85.714 283.286 L 85.714 285.714 197.857 285.714 L 310.000 285.714 310.000 283.286 L 310.000 280.857 338.286 280.857 C 356.952 280.857,366.571 280.760,366.571 280.571 C 366.571 280.406,367.476 280.286,368.714 280.286 C 369.952 280.286,370.857 280.165,370.857 280.000 C 370.857 279.843,371.243 279.714,371.714 279.714 C 372.186 279.714,372.571 279.586,372.571 279.429 C 372.571 279.271,372.773 279.143,373.020 279.143 C 373.598 279.143,374.286 278.455,374.286 277.878 C 374.286 277.631,374.479 277.429,374.714 277.429 C 375.000 277.429,375.143 277.143,375.143 276.571 C 375.143 276.100,375.271 275.714,375.429 275.714 C 375.594 275.714,375.714 274.810,375.714 273.571 L 375.714 271.429 379.286 271.429 C 381.476 271.429,382.857 271.318,382.857 271.143 C 382.857 270.986,383.188 270.857,383.592 270.857 C 383.996 270.857,384.510 270.673,384.735 270.449 C 384.959 270.224,385.143 269.710,385.143 269.306 C 385.143 268.902,385.271 268.571,385.429 268.571 C 385.602 268.571,385.714 267.286,385.714 265.286 L 385.714 262.000 388.714 262.000 C 390.524 262.000,391.714 261.887,391.714 261.714 C 391.714 261.557,392.100 261.429,392.571 261.429 C 393.077 261.429,393.429 261.279,393.429 261.063 C 393.429 260.862,393.686 260.512,394.000 260.286 C 394.336 260.044,394.571 259.546,394.571 259.080 C 394.571 258.643,394.700 258.286,394.857 258.286 C 395.040 258.286,395.143 255.619,395.143 250.857 L 395.143 243.429 397.571 243.429 L 400.000 243.429 400.000 138.714 L 400.000 34.000 397.571 34.000 L 395.143 34.000 395.143 27.714 C 395.143 23.714,395.039 21.429,394.857 21.429 C 394.696 21.429,394.571 20.619,394.571 19.571 C 394.571 18.524,394.447 17.714,394.286 17.714 C 394.129 17.714,394.000 17.512,394.000 17.265 C 394.000 16.688,393.312 16.000,392.735 16.000 C 392.488 16.000,392.286 15.871,392.286 15.714 C 392.286 15.553,391.476 15.429,390.429 15.429 C 389.381 15.429,388.571 15.304,388.571 15.143 C 388.571 14.986,387.929 14.857,387.143 14.857 L 385.714 14.857 385.714 12.714 C 385.714 11.476,385.594 10.571,385.429 10.571 C 385.271 10.571,385.143 9.989,385.143 9.276 C 385.143 7.341,383.743 6.000,381.724 6.000 C 380.933 6.000,380.286 5.871,380.286 5.714 C 380.286 5.537,378.714 5.429,376.143 5.429 L 372.000 5.429 372.000 2.714 L 372.000 0.000 200.286 0.000 L 28.571 0.000 28.571 2.714 M157.714 83.571 C 157.714 85.190,157.830 86.286,158.000 86.286 C 158.157 86.286,158.286 86.772,158.286 87.365 C 158.286 88.118,158.459 88.570,158.857 88.857 C 159.171 89.084,159.429 89.433,159.429 89.635 C 159.429 89.877,159.861 90.000,160.714 90.000 C 161.421 90.000,162.000 90.129,162.000 90.286 C 162.000 90.469,164.667 90.571,169.429 90.571 L 176.857 90.571 176.857 93.429 C 176.857 95.143,176.971 96.286,177.143 96.286 C 177.300 96.286,177.429 96.677,177.429 97.156 C 177.429 98.234,178.548 99.429,179.558 99.429 C 179.958 99.429,180.286 99.557,180.286 99.714 C 180.286 99.894,182.147 100.000,185.299 100.000 C 190.533 100.000,191.714 100.318,191.714 101.730 C 191.714 101.909,192.100 102.417,192.571 102.857 C 193.043 103.298,193.429 103.799,193.429 103.972 C 193.429 104.144,193.627 104.286,193.870 104.286 C 194.697 104.286,195.714 105.618,195.714 106.701 C 195.714 107.334,195.852 107.714,196.080 107.714 C 196.281 107.714,196.631 107.971,196.857 108.286 C 197.099 108.621,197.597 108.857,198.063 108.857 C 198.500 108.857,198.857 108.986,198.857 109.143 C 198.857 109.322,200.619 109.429,203.571 109.429 C 208.095 109.429,208.286 109.452,208.286 110.000 C 208.286 110.314,208.414 110.571,208.571 110.571 C 208.729 110.571,208.857 110.893,208.857 111.286 C 208.857 111.679,208.986 112.000,209.143 112.000 C 209.300 112.000,209.429 112.202,209.429 112.449 C 209.429 112.929,210.086 113.714,210.488 113.714 C 210.622 113.714,210.916 113.971,211.143 114.286 C 211.369 114.600,211.783 114.857,212.063 114.857 C 212.343 114.857,212.571 114.986,212.571 115.143 C 212.571 115.300,212.829 115.429,213.143 115.429 C 213.457 115.429,213.714 115.557,213.714 115.714 C 213.714 115.871,213.971 116.000,214.286 116.000 C 214.730 116.000,214.857 116.190,214.857 116.857 C 214.857 117.329,214.986 117.714,215.143 117.714 C 215.300 117.714,215.429 117.907,215.429 118.143 C 215.429 118.429,215.714 118.571,216.286 118.571 C 216.757 118.571,217.143 118.700,217.143 118.857 C 217.143 119.036,218.857 119.143,221.714 119.143 L 226.286 119.143 226.286 120.286 C 226.286 120.914,226.414 121.429,226.571 121.429 C 226.729 121.429,226.857 121.686,226.857 122.000 C 226.857 122.314,226.986 122.571,227.143 122.571 C 227.300 122.571,227.429 122.777,227.429 123.028 C 227.429 123.279,227.814 123.845,228.286 124.286 C 228.757 124.726,229.143 125.228,229.143 125.400 C 229.143 125.573,229.400 125.714,229.714 125.714 C 230.029 125.714,230.286 125.843,230.286 126.000 C 230.286 126.157,230.543 126.286,230.857 126.286 C 231.171 126.286,231.429 126.414,231.429 126.571 C 231.429 126.729,232.007 126.857,232.714 126.857 C 233.810 126.857,234.000 126.942,234.000 127.429 C 234.000 127.873,234.190 128.000,234.857 128.000 C 235.329 128.000,235.714 128.129,235.714 128.286 C 235.714 128.464,237.381 128.571,240.143 128.571 L 244.571 128.571 244.571 129.714 C 244.571 130.343,244.700 130.857,244.857 130.857 C 245.014 130.857,245.143 131.307,245.143 131.857 C 245.143 132.407,245.271 132.857,245.429 132.857 C 245.586 132.857,245.714 133.114,245.714 133.429 C 245.714 133.743,245.856 134.000,246.028 134.000 C 246.201 134.000,246.702 134.386,247.143 134.857 C 247.583 135.329,248.149 135.714,248.400 135.714 C 248.652 135.714,248.857 135.843,248.857 136.000 C 248.857 136.157,249.243 136.286,249.714 136.286 C 250.186 136.286,250.571 136.414,250.571 136.571 C 250.571 136.729,251.086 136.857,251.714 136.857 C 252.667 136.857,252.857 136.952,252.857 137.429 C 252.857 137.746,253.048 138.000,253.286 138.000 C 253.521 138.000,253.714 138.129,253.714 138.286 C 253.714 138.465,251.905 138.571,248.857 138.571 C 245.810 138.571,244.000 138.678,244.000 138.857 C 244.000 139.014,243.357 139.143,242.571 139.143 C 241.492 139.143,241.143 139.248,241.143 139.571 C 241.143 139.889,240.810 140.000,239.857 140.000 C 239.150 140.000,238.571 140.129,238.571 140.286 C 238.571 140.443,238.374 140.571,238.133 140.571 C 237.565 140.571,235.714 142.422,235.714 142.990 C 235.714 143.231,235.586 143.429,235.429 143.429 C 235.271 143.429,235.143 143.943,235.143 144.571 C 235.143 145.200,235.014 145.714,234.857 145.714 C 234.700 145.714,234.571 146.293,234.571 147.000 L 234.571 148.286 230.143 148.286 C 227.381 148.286,225.714 148.393,225.714 148.571 C 225.714 148.729,225.264 148.857,224.714 148.857 C 224.164 148.857,223.714 148.986,223.714 149.143 C 223.714 149.300,223.071 149.429,222.286 149.429 C 221.500 149.429,220.857 149.557,220.857 149.714 C 220.857 149.871,220.500 150.000,220.063 150.000 C 219.597 150.000,219.099 150.236,218.857 150.571 C 218.631 150.886,218.339 151.143,218.210 151.143 C 217.621 151.143,216.571 152.600,216.571 153.416 C 216.571 153.894,216.443 154.286,216.286 154.286 C 216.129 154.286,216.000 154.873,216.000 155.592 C 216.000 157.640,215.820 157.714,210.878 157.714 C 208.197 157.714,206.571 157.822,206.571 158.000 C 206.571 158.157,206.314 158.286,206.000 158.286 C 205.686 158.286,205.429 158.414,205.429 158.571 C 205.429 158.729,205.171 158.857,204.857 158.857 C 204.543 158.857,204.286 158.986,204.286 159.143 C 204.286 159.300,203.707 159.429,203.000 159.429 C 202.293 159.429,201.714 159.557,201.714 159.714 C 201.714 159.871,201.512 160.000,201.265 160.000 C 200.815 160.000,200.000 160.649,200.000 161.008 C 200.000 161.113,199.614 161.560,199.143 162.000 C 198.671 162.440,198.286 163.006,198.286 163.257 C 198.286 163.509,198.157 163.714,198.000 163.714 C 197.843 163.714,197.714 164.229,197.714 164.857 C 197.714 165.486,197.586 166.000,197.429 166.000 C 197.271 166.000,197.143 166.257,197.143 166.571 C 197.143 167.119,196.952 167.143,192.571 167.143 C 189.714 167.143,188.000 167.250,188.000 167.429 C 188.000 167.586,187.743 167.714,187.429 167.714 C 187.114 167.714,186.857 167.849,186.857 168.013 C 186.857 168.588,185.448 169.714,184.727 169.714 C 184.327 169.714,184.000 169.843,184.000 170.000 C 184.000 170.157,183.771 170.286,183.492 170.286 C 183.212 170.286,182.798 170.543,182.571 170.857 C 182.345 171.171,181.867 171.429,181.508 171.429 C 181.075 171.429,180.857 171.598,180.857 171.937 C 180.857 172.217,180.600 172.631,180.286 172.857 C 179.971 173.084,179.714 173.498,179.714 173.777 C 179.714 174.057,179.586 174.286,179.429 174.286 C 179.271 174.286,179.143 174.681,179.143 175.163 C 179.143 176.735,178.774 176.857,174.020 176.857 C 171.340 176.857,169.714 176.965,169.714 177.143 C 169.714 177.300,169.329 177.429,168.857 177.429 C 168.386 177.429,168.000 177.557,168.000 177.714 C 168.000 177.871,167.807 178.000,167.571 178.000 C 167.286 178.000,167.143 178.286,167.143 178.857 C 167.143 179.524,167.016 179.714,166.571 179.714 C 166.257 179.714,166.000 179.843,166.000 180.000 C 166.000 180.157,165.743 180.286,165.429 180.286 C 165.114 180.286,164.857 180.414,164.857 180.571 C 164.857 180.729,164.658 180.857,164.416 180.857 C 163.918 180.857,162.571 182.100,162.571 182.558 C 162.571 182.723,162.443 182.857,162.286 182.857 C 162.129 182.857,162.000 183.114,162.000 183.429 C 162.000 183.743,161.871 184.000,161.714 184.000 C 161.557 184.000,161.429 184.257,161.429 184.571 C 161.429 184.886,161.300 185.143,161.143 185.143 C 160.986 185.143,160.857 185.400,160.857 185.714 C 160.857 186.227,160.667 186.286,159.000 186.286 L 157.143 186.286 157.143 133.571 C 157.143 98.619,157.239 80.857,157.429 80.857 C 157.599 80.857,157.714 81.952,157.714 83.571 " stroke="none" fill="#ffffff" fill-rule="evenodd"></path><path id="path3" d="M28.571 2.714 L 28.571 5.429 24.143 5.429 C 21.381 5.429,19.714 5.536,19.714 5.714 C 19.714 5.871,19.136 6.000,18.429 6.000 C 17.721 6.000,17.143 6.129,17.143 6.286 C 17.143 6.443,16.886 6.571,16.571 6.571 C 16.190 6.571,16.000 6.762,16.000 7.143 C 16.000 7.457,15.871 7.714,15.714 7.714 C 15.557 7.714,15.429 8.229,15.429 8.857 C 15.429 9.486,15.300 10.000,15.143 10.000 C 14.975 10.000,14.857 11.000,14.857 12.429 L 14.857 14.857 12.857 14.857 C 11.714 14.857,10.857 14.980,10.857 15.143 C 10.857 15.300,10.210 15.429,9.419 15.429 C 7.332 15.429,6.000 16.761,6.000 18.848 C 6.000 19.639,5.871 20.286,5.714 20.286 C 5.532 20.286,5.429 22.762,5.429 27.143 L 5.429 34.000 2.714 34.000 L 0.000 34.000 0.000 142.286 L 0.000 250.571 2.714 250.571 L 5.429 250.571 5.429 254.714 C 5.429 257.286,5.537 258.857,5.714 258.857 C 5.871 258.857,6.000 259.243,6.000 259.714 C 6.000 260.186,6.129 260.571,6.286 260.571 C 6.443 260.571,6.571 260.764,6.571 261.000 C 6.571 261.286,6.857 261.429,7.429 261.429 C 7.900 261.429,8.286 261.557,8.286 261.714 C 8.286 261.888,9.571 262.000,11.571 262.000 L 14.857 262.000 14.857 265.571 C 14.857 267.762,14.968 269.143,15.143 269.143 C 15.300 269.143,15.429 269.345,15.429 269.592 C 15.429 270.169,16.116 270.857,16.694 270.857 C 16.941 270.857,17.143 270.986,17.143 271.143 C 17.143 271.318,18.524 271.429,20.714 271.429 C 22.905 271.429,24.286 271.539,24.286 271.714 C 24.286 271.871,24.479 272.000,24.714 272.000 C 25.062 272.000,25.143 272.460,25.143 274.429 C 25.143 275.857,25.261 276.857,25.429 276.857 C 25.586 276.857,25.714 277.114,25.714 277.429 C 25.714 277.743,25.843 278.000,26.000 278.000 C 26.157 278.000,26.286 278.257,26.286 278.571 C 26.286 278.952,26.476 279.143,26.857 279.143 C 27.171 279.143,27.429 279.271,27.429 279.429 C 27.429 279.586,27.686 279.714,28.000 279.714 C 28.314 279.714,28.571 279.843,28.571 280.000 C 28.571 280.168,29.571 280.286,31.000 280.286 C 32.429 280.286,33.429 280.403,33.429 280.571 C 33.429 280.760,42.333 280.857,59.571 280.857 L 85.714 280.857 85.714 283.286 L 85.714 285.714 197.857 285.714 L 310.000 285.714 310.000 283.286 L 310.000 280.857 338.286 280.857 C 356.952 280.857,366.571 280.760,366.571 280.571 C 366.571 280.406,367.476 280.286,368.714 280.286 C 369.952 280.286,370.857 280.165,370.857 280.000 C 370.857 279.843,371.243 279.714,371.714 279.714 C 372.186 279.714,372.571 279.586,372.571 279.429 C 372.571 279.271,372.773 279.143,373.020 279.143 C 373.598 279.143,374.286 278.455,374.286 277.878 C 374.286 277.631,374.479 277.429,374.714 277.429 C 375.000 277.429,375.143 277.143,375.143 276.571 C 375.143 276.100,375.271 275.714,375.429 275.714 C 375.594 275.714,375.714 274.810,375.714 273.571 L 375.714 271.429 379.286 271.429 C 381.476 271.429,382.857 271.318,382.857 271.143 C 382.857 270.986,383.188 270.857,383.592 270.857 C 383.996 270.857,384.510 270.673,384.735 270.449 C 384.959 270.224,385.143 269.710,385.143 269.306 C 385.143 268.902,385.271 268.571,385.429 268.571 C 385.602 268.571,385.714 267.286,385.714 265.286 L 385.714 262.000 388.714 262.000 C 390.524 262.000,391.714 261.887,391.714 261.714 C 391.714 261.557,392.100 261.429,392.571 261.429 C 393.077 261.429,393.429 261.279,393.429 261.063 C 393.429 260.862,393.686 260.512,394.000 260.286 C 394.336 260.044,394.571 259.546,394.571 259.080 C 394.571 258.643,394.700 258.286,394.857 258.286 C 395.040 258.286,395.143 255.619,395.143 250.857 L 395.143 243.429 397.571 243.429 L 400.000 243.429 400.000 138.714 L 400.000 34.000 397.571 34.000 L 395.143 34.000 395.143 27.714 C 395.143 23.714,395.039 21.429,394.857 21.429 C 394.696 21.429,394.571 20.619,394.571 19.571 C 394.571 18.524,394.447 17.714,394.286 17.714 C 394.129 17.714,394.000 17.512,394.000 17.265 C 394.000 16.688,393.312 16.000,392.735 16.000 C 392.488 16.000,392.286 15.871,392.286 15.714 C 392.286 15.553,391.476 15.429,390.429 15.429 C 389.381 15.429,388.571 15.304,388.571 15.143 C 388.571 14.986,387.929 14.857,387.143 14.857 L 385.714 14.857 385.714 12.714 C 385.714 11.476,385.594 10.571,385.429 10.571 C 385.271 10.571,385.143 9.989,385.143 9.276 C 385.143 7.341,383.743 6.000,381.724 6.000 C 380.933 6.000,380.286 5.871,380.286 5.714 C 380.286 5.537,378.714 5.429,376.143 5.429 L 372.000 5.429 372.000 2.714 L 372.000 0.000 200.286 0.000 L 28.571 0.000 28.571 2.714 M157.714 83.571 C 157.714 85.190,157.830 86.286,158.000 86.286 C 158.157 86.286,158.286 86.772,158.286 87.365 C 158.286 88.118,158.459 88.570,158.857 88.857 C 159.171 89.084,159.429 89.433,159.429 89.635 C 159.429 89.877,159.861 90.000,160.714 90.000 C 161.421 90.000,162.000 90.129,162.000 90.286 C 162.000 90.469,164.667 90.571,169.429 90.571 L 176.857 90.571 176.857 93.429 C 176.857 95.143,176.971 96.286,177.143 96.286 C 177.300 96.286,177.429 96.677,177.429 97.156 C 177.429 98.234,178.548 99.429,179.558 99.429 C 179.958 99.429,180.286 99.557,180.286 99.714 C 180.286 99.894,182.147 100.000,185.299 100.000 C 190.533 100.000,191.714 100.318,191.714 101.730 C 191.714 101.909,192.100 102.417,192.571 102.857 C 193.043 103.298,193.429 103.799,193.429 103.972 C 193.429 104.144,193.627 104.286,193.870 104.286 C 194.697 104.286,195.714 105.618,195.714 106.701 C 195.714 107.334,195.852 107.714,196.080 107.714 C 196.281 107.714,196.631 107.971,196.857 108.286 C 197.099 108.621,197.597 108.857,198.063 108.857 C 198.500 108.857,198.857 108.986,198.857 109.143 C 198.857 109.322,200.619 109.429,203.571 109.429 C 208.095 109.429,208.286 109.452,208.286 110.000 C 208.286 110.314,208.414 110.571,208.571 110.571 C 208.729 110.571,208.857 110.893,208.857 111.286 C 208.857 111.679,208.986 112.000,209.143 112.000 C 209.300 112.000,209.429 112.202,209.429 112.449 C 209.429 112.929,210.086 113.714,210.488 113.714 C 210.622 113.714,210.916 113.971,211.143 114.286 C 211.369 114.600,211.783 114.857,212.063 114.857 C 212.343 114.857,212.571 114.986,212.571 115.143 C 212.571 115.300,212.829 115.429,213.143 115.429 C 213.457 115.429,213.714 115.557,213.714 115.714 C 213.714 115.871,213.971 116.000,214.286 116.000 C 214.730 116.000,214.857 116.190,214.857 116.857 C 214.857 117.329,214.986 117.714,215.143 117.714 C 215.300 117.714,215.429 117.907,215.429 118.143 C 215.429 118.429,215.714 118.571,216.286 118.571 C 216.757 118.571,217.143 118.700,217.143 118.857 C 217.143 119.036,218.857 119.143,221.714 119.143 L 226.286 119.143 226.286 120.286 C 226.286 120.914,226.414 121.429,226.571 121.429 C 226.729 121.429,226.857 121.686,226.857 122.000 C 226.857 122.314,226.986 122.571,227.143 122.571 C 227.300 122.571,227.429 122.777,227.429 123.028 C 227.429 123.279,227.814 123.845,228.286 124.286 C 228.757 124.726,229.143 125.228,229.143 125.400 C 229.143 125.573,229.400 125.714,229.714 125.714 C 230.029 125.714,230.286 125.843,230.286 126.000 C 230.286 126.157,230.543 126.286,230.857 126.286 C 231.171 126.286,231.429 126.414,231.429 126.571 C 231.429 126.729,232.007 126.857,232.714 126.857 C 233.810 126.857,234.000 126.942,234.000 127.429 C 234.000 127.873,234.190 128.000,234.857 128.000 C 235.329 128.000,235.714 128.129,235.714 128.286 C 235.714 128.464,237.381 128.571,240.143 128.571 L 244.571 128.571 244.571 129.714 C 244.571 130.343,244.700 130.857,244.857 130.857 C 245.014 130.857,245.143 131.307,245.143 131.857 C 245.143 132.407,245.271 132.857,245.429 132.857 C 245.586 132.857,245.714 133.114,245.714 133.429 C 245.714 133.743,245.856 134.000,246.028 134.000 C 246.201 134.000,246.702 134.386,247.143 134.857 C 247.583 135.329,248.149 135.714,248.400 135.714 C 248.652 135.714,248.857 135.843,248.857 136.000 C 248.857 136.157,249.243 136.286,249.714 136.286 C 250.186 136.286,250.571 136.414,250.571 136.571 C 250.571 136.729,251.086 136.857,251.714 136.857 C 252.667 136.857,252.857 136.952,252.857 137.429 C 252.857 137.746,253.048 138.000,253.286 138.000 C 253.521 138.000,253.714 138.129,253.714 138.286 C 253.714 138.465,251.905 138.571,248.857 138.571 C 245.810 138.571,244.000 138.678,244.000 138.857 C 244.000 139.014,243.357 139.143,242.571 139.143 C 241.492 139.143,241.143 139.248,241.143 139.571 C 241.143 139.889,240.810 140.000,239.857 140.000 C 239.150 140.000,238.571 140.129,238.571 140.286 C 238.571 140.443,238.374 140.571,238.133 140.571 C 237.565 140.571,235.714 142.422,235.714 142.990 C 235.714 143.231,235.586 143.429,235.429 143.429 C 235.271 143.429,235.143 143.943,235.143 144.571 C 235.143 145.200,235.014 145.714,234.857 145.714 C 234.700 145.714,234.571 146.293,234.571 147.000 L 234.571 148.286 230.143 148.286 C 227.381 148.286,225.714 148.393,225.714 148.571 C 225.714 148.729,225.264 148.857,224.714 148.857 C 224.164 148.857,223.714 148.986,223.714 149.143 C 223.714 149.300,223.071 149.429,222.286 149.429 C 221.500 149.429,220.857 149.557,220.857 149.714 C 220.857 149.871,220.500 150.000,220.063 150.000 C 219.597 150.000,219.099 150.236,218.857 150.571 C 218.631 150.886,218.339 151.143,218.210 151.143 C 217.621 151.143,216.571 152.600,216.571 153.416 C 216.571 153.894,216.443 154.286,216.286 154.286 C 216.129 154.286,216.000 154.873,216.000 155.592 C 216.000 157.640,215.820 157.714,210.878 157.714 C 208.197 157.714,206.571 157.822,206.571 158.000 C 206.571 158.157,206.314 158.286,206.000 158.286 C 205.686 158.286,205.429 158.414,205.429 158.571 C 205.429 158.729,205.171 158.857,204.857 158.857 C 204.543 158.857,204.286 158.986,204.286 159.143 C 204.286 159.300,203.707 159.429,203.000 159.429 C 202.293 159.429,201.714 159.557,201.714 159.714 C 201.714 159.871,201.512 160.000,201.265 160.000 C 200.815 160.000,200.000 160.649,200.000 161.008 C 200.000 161.113,199.614 161.560,199.143 162.000 C 198.671 162.440,198.286 163.006,198.286 163.257 C 198.286 163.509,198.157 163.714,198.000 163.714 C 197.843 163.714,197.714 164.229,197.714 164.857 C 197.714 165.486,197.586 166.000,197.429 166.000 C 197.271 166.000,197.143 166.257,197.143 166.571 C 197.143 167.119,196.952 167.143,192.571 167.143 C 189.714 167.143,188.000 167.250,188.000 167.429 C 188.000 167.586,187.743 167.714,187.429 167.714 C 187.114 167.714,186.857 167.849,186.857 168.013 C 186.857 168.588,185.448 169.714,184.727 169.714 C 184.327 169.714,184.000 169.843,184.000 170.000 C 184.000 170.157,183.771 170.286,183.492 170.286 C 183.212 170.286,182.798 170.543,182.571 170.857 C 182.345 171.171,181.867 171.429,181.508 171.429 C 181.075 171.429,180.857 171.598,180.857 171.937 C 180.857 172.217,180.600 172.631,180.286 172.857 C 179.971 173.084,179.714 173.498,179.714 173.777 C 179.714 174.057,179.586 174.286,179.429 174.286 C 179.271 174.286,179.143 174.681,179.143 175.163 C 179.143 176.735,178.774 176.857,174.020 176.857 C 171.340 176.857,169.714 176.965,169.714 177.143 C 169.714 177.300,169.329 177.429,168.857 177.429 C 168.386 177.429,168.000 177.557,168.000 177.714 C 168.000 177.871,167.807 178.000,167.571 178.000 C 167.286 178.000,167.143 178.286,167.143 178.857 C 167.143 179.524,167.016 179.714,166.571 179.714 C 166.257 179.714,166.000 179.843,166.000 180.000 C 166.000 180.157,165.743 180.286,165.429 180.286 C 165.114 180.286,164.857 180.414,164.857 180.571 C 164.857 180.729,164.658 180.857,164.416 180.857 C 163.918 180.857,162.571 182.100,162.571 182.558 C 162.571 182.723,162.443 182.857,162.286 182.857 C 162.129 182.857,162.000 183.114,162.000 183.429 C 162.000 183.743,161.871 184.000,161.714 184.000 C 161.557 184.000,161.429 184.257,161.429 184.571 C 161.429 184.886,161.300 185.143,161.143 185.143 C 160.986 185.143,160.857 185.400,160.857 185.714 C 160.857 186.227,160.667 186.286,159.000 186.286 L 157.143 186.286 157.143 133.571 C 157.143 98.619,157.239 80.857,157.429 80.857 C 157.599 80.857,157.714 81.952,157.714 83.571 " stroke="none" fill="#ffffff" fill-rule="evenodd"></path><path id="path4" d="M28.571 2.714 L 28.571 5.429 24.143 5.429 C 21.381 5.429,19.714 5.536,19.714 5.714 C 19.714 5.871,19.136 6.000,18.429 6.000 C 17.721 6.000,17.143 6.129,17.143 6.286 C 17.143 6.443,16.886 6.571,16.571 6.571 C 16.190 6.571,16.000 6.762,16.000 7.143 C 16.000 7.457,15.871 7.714,15.714 7.714 C 15.557 7.714,15.429 8.229,15.429 8.857 C 15.429 9.486,15.300 10.000,15.143 10.000 C 14.975 10.000,14.857 11.000,14.857 12.429 L 14.857 14.857 12.857 14.857 C 11.714 14.857,10.857 14.980,10.857 15.143 C 10.857 15.300,10.210 15.429,9.419 15.429 C 7.332 15.429,6.000 16.761,6.000 18.848 C 6.000 19.639,5.871 20.286,5.714 20.286 C 5.532 20.286,5.429 22.762,5.429 27.143 L 5.429 34.000 2.714 34.000 L 0.000 34.000 0.000 142.286 L 0.000 250.571 2.714 250.571 L 5.429 250.571 5.429 254.714 C 5.429 257.286,5.537 258.857,5.714 258.857 C 5.871 258.857,6.000 259.243,6.000 259.714 C 6.000 260.186,6.129 260.571,6.286 260.571 C 6.443 260.571,6.571 260.764,6.571 261.000 C 6.571 261.286,6.857 261.429,7.429 261.429 C 7.900 261.429,8.286 261.557,8.286 261.714 C 8.286 261.888,9.571 262.000,11.571 262.000 L 14.857 262.000 14.857 265.571 C 14.857 267.762,14.968 269.143,15.143 269.143 C 15.300 269.143,15.429 269.345,15.429 269.592 C 15.429 270.169,16.116 270.857,16.694 270.857 C 16.941 270.857,17.143 270.986,17.143 271.143 C 17.143 271.318,18.524 271.429,20.714 271.429 C 22.905 271.429,24.286 271.539,24.286 271.714 C 24.286 271.871,24.479 272.000,24.714 272.000 C 25.062 272.000,25.143 272.460,25.143 274.429 C 25.143 275.857,25.261 276.857,25.429 276.857 C 25.586 276.857,25.714 277.114,25.714 277.429 C 25.714 277.743,25.843 278.000,26.000 278.000 C 26.157 278.000,26.286 278.257,26.286 278.571 C 26.286 278.952,26.476 279.143,26.857 279.143 C 27.171 279.143,27.429 279.271,27.429 279.429 C 27.429 279.586,27.686 279.714,28.000 279.714 C 28.314 279.714,28.571 279.843,28.571 280.000 C 28.571 280.168,29.571 280.286,31.000 280.286 C 32.429 280.286,33.429 280.403,33.429 280.571 C 33.429 280.760,42.333 280.857,59.571 280.857 L 85.714 280.857 85.714 283.286 L 85.714 285.714 197.857 285.714 L 310.000 285.714 310.000 283.286 L 310.000 280.857 338.286 280.857 C 356.952 280.857,366.571 280.760,366.571 280.571 C 366.571 280.406,367.476 280.286,368.714 280.286 C 369.952 280.286,370.857 280.165,370.857 280.000 C 370.857 279.843,371.243 279.714,371.714 279.714 C 372.186 279.714,372.571 279.586,372.571 279.429 C 372.571 279.271,372.773 279.143,373.020 279.143 C 373.598 279.143,374.286 278.455,374.286 277.878 C 374.286 277.631,374.479 277.429,374.714 277.429 C 375.000 277.429,375.143 277.143,375.143 276.571 C 375.143 276.100,375.271 275.714,375.429 275.714 C 375.594 275.714,375.714 274.810,375.714 273.571 L 375.714 271.429 379.286 271.429 C 381.476 271.429,382.857 271.318,382.857 271.143 C 382.857 270.986,383.188 270.857,383.592 270.857 C 383.996 270.857,384.510 270.673,384.735 270.449 C 384.959 270.224,385.143 269.710,385.143 269.306 C 385.143 268.902,385.271 268.571,385.429 268.571 C 385.602 268.571,385.714 267.286,385.714 265.286 L 385.714 262.000 388.714 262.000 C 390.524 262.000,391.714 261.887,391.714 261.714 C 391.714 261.557,392.100 261.429,392.571 261.429 C 393.077 261.429,393.429 261.279,393.429 261.063 C 393.429 260.862,393.686 260.512,394.000 260.286 C 394.336 260.044,394.571 259.546,394.571 259.080 C 394.571 258.643,394.700 258.286,394.857 258.286 C 395.040 258.286,395.143 255.619,395.143 250.857 L 395.143 243.429 397.571 243.429 L 400.000 243.429 400.000 138.714 L 400.000 34.000 397.571 34.000 L 395.143 34.000 395.143 27.714 C 395.143 23.714,395.039 21.429,394.857 21.429 C 394.696 21.429,394.571 20.619,394.571 19.571 C 394.571 18.524,394.447 17.714,394.286 17.714 C 394.129 17.714,394.000 17.512,394.000 17.265 C 394.000 16.688,393.312 16.000,392.735 16.000 C 392.488 16.000,392.286 15.871,392.286 15.714 C 392.286 15.553,391.476 15.429,390.429 15.429 C 389.381 15.429,388.571 15.304,388.571 15.143 C 388.571 14.986,387.929 14.857,387.143 14.857 L 385.714 14.857 385.714 12.714 C 385.714 11.476,385.594 10.571,385.429 10.571 C 385.271 10.571,385.143 9.989,385.143 9.276 C 385.143 7.341,383.743 6.000,381.724 6.000 C 380.933 6.000,380.286 5.871,380.286 5.714 C 380.286 5.537,378.714 5.429,376.143 5.429 L 372.000 5.429 372.000 2.714 L 372.000 0.000 200.286 0.000 L 28.571 0.000 28.571 2.714 M157.714 83.571 C 157.714 85.190,157.830 86.286,158.000 86.286 C 158.157 86.286,158.286 86.772,158.286 87.365 C 158.286 88.118,158.459 88.570,158.857 88.857 C 159.171 89.084,159.429 89.433,159.429 89.635 C 159.429 89.877,159.861 90.000,160.714 90.000 C 161.421 90.000,162.000 90.129,162.000 90.286 C 162.000 90.469,164.667 90.571,169.429 90.571 L 176.857 90.571 176.857 93.429 C 176.857 95.143,176.971 96.286,177.143 96.286 C 177.300 96.286,177.429 96.677,177.429 97.156 C 177.429 98.234,178.548 99.429,179.558 99.429 C 179.958 99.429,180.286 99.557,180.286 99.714 C 180.286 99.894,182.147 100.000,185.299 100.000 C 190.533 100.000,191.714 100.318,191.714 101.730 C 191.714 101.909,192.100 102.417,192.571 102.857 C 193.043 103.298,193.429 103.799,193.429 103.972 C 193.429 104.144,193.627 104.286,193.870 104.286 C 194.697 104.286,195.714 105.618,195.714 106.701 C 195.714 107.334,195.852 107.714,196.080 107.714 C 196.281 107.714,196.631 107.971,196.857 108.286 C 197.099 108.621,197.597 108.857,198.063 108.857 C 198.500 108.857,198.857 108.986,198.857 109.143 C 198.857 109.322,200.619 109.429,203.571 109.429 C 208.095 109.429,208.286 109.452,208.286 110.000 C 208.286 110.314,208.414 110.571,208.571 110.571 C 208.729 110.571,208.857 110.893,208.857 111.286 C 208.857 111.679,208.986 112.000,209.143 112.000 C 209.300 112.000,209.429 112.202,209.429 112.449 C 209.429 112.929,210.086 113.714,210.488 113.714 C 210.622 113.714,210.916 113.971,211.143 114.286 C 211.369 114.600,211.783 114.857,212.063 114.857 C 212.343 114.857,212.571 114.986,212.571 115.143 C 212.571 115.300,212.829 115.429,213.143 115.429 C 213.457 115.429,213.714 115.557,213.714 115.714 C 213.714 115.871,213.971 116.000,214.286 116.000 C 214.730 116.000,214.857 116.190,214.857 116.857 C 214.857 117.329,214.986 117.714,215.143 117.714 C 215.300 117.714,215.429 117.907,215.429 118.143 C 215.429 118.429,215.714 118.571,216.286 118.571 C 216.757 118.571,217.143 118.700,217.143 118.857 C 217.143 119.036,218.857 119.143,221.714 119.143 L 226.286 119.143 226.286 120.286 C 226.286 120.914,226.414 121.429,226.571 121.429 C 226.729 121.429,226.857 121.686,226.857 122.000 C 226.857 122.314,226.986 122.571,227.143 122.571 C 227.300 122.571,227.429 122.777,227.429 123.028 C 227.429 123.279,227.814 123.845,228.286 124.286 C 228.757 124.726,229.143 125.228,229.143 125.400 C 229.143 125.573,229.400 125.714,229.714 125.714 C 230.029 125.714,230.286 125.843,230.286 126.000 C 230.286 126.157,230.543 126.286,230.857 126.286 C 231.171 126.286,231.429 126.414,231.429 126.571 C 231.429 126.729,232.007 126.857,232.714 126.857 C 233.810 126.857,234.000 126.942,234.000 127.429 C 234.000 127.873,234.190 128.000,234.857 128.000 C 235.329 128.000,235.714 128.129,235.714 128.286 C 235.714 128.464,237.381 128.571,240.143 128.571 L 244.571 128.571 244.571 129.714 C 244.571 130.343,244.700 130.857,244.857 130.857 C 245.014 130.857,245.143 131.307,245.143 131.857 C 245.143 132.407,245.271 132.857,245.429 132.857 C 245.586 132.857,245.714 133.114,245.714 133.429 C 245.714 133.743,245.856 134.000,246.028 134.000 C 246.201 134.000,246.702 134.386,247.143 134.857 C 247.583 135.329,248.149 135.714,248.400 135.714 C 248.652 135.714,248.857 135.843,248.857 136.000 C 248.857 136.157,249.243 136.286,249.714 136.286 C 250.186 136.286,250.571 136.414,250.571 136.571 C 250.571 136.729,251.086 136.857,251.714 136.857 C 252.667 136.857,252.857 136.952,252.857 137.429 C 252.857 137.746,253.048 138.000,253.286 138.000 C 253.521 138.000,253.714 138.129,253.714 138.286 C 253.714 138.465,251.905 138.571,248.857 138.571 C 245.810 138.571,244.000 138.678,244.000 138.857 C 244.000 139.014,243.357 139.143,242.571 139.143 C 241.492 139.143,241.143 139.248,241.143 139.571 C 241.143 139.889,240.810 140.000,239.857 140.000 C 239.150 140.000,238.571 140.129,238.571 140.286 C 238.571 140.443,238.374 140.571,238.133 140.571 C 237.565 140.571,235.714 142.422,235.714 142.990 C 235.714 143.231,235.586 143.429,235.429 143.429 C 235.271 143.429,235.143 143.943,235.143 144.571 C 235.143 145.200,235.014 145.714,234.857 145.714 C 234.700 145.714,234.571 146.293,234.571 147.000 L 234.571 148.286 230.143 148.286 C 227.381 148.286,225.714 148.393,225.714 148.571 C 225.714 148.729,225.264 148.857,224.714 148.857 C 224.164 148.857,223.714 148.986,223.714 149.143 C 223.714 149.300,223.071 149.429,222.286 149.429 C 221.500 149.429,220.857 149.557,220.857 149.714 C 220.857 149.871,220.500 150.000,220.063 150.000 C 219.597 150.000,219.099 150.236,218.857 150.571 C 218.631 150.886,218.339 151.143,218.210 151.143 C 217.621 151.143,216.571 152.600,216.571 153.416 C 216.571 153.894,216.443 154.286,216.286 154.286 C 216.129 154.286,216.000 154.873,216.000 155.592 C 216.000 157.640,215.820 157.714,210.878 157.714 C 208.197 157.714,206.571 157.822,206.571 158.000 C 206.571 158.157,206.314 158.286,206.000 158.286 C 205.686 158.286,205.429 158.414,205.429 158.571 C 205.429 158.729,205.171 158.857,204.857 158.857 C 204.543 158.857,204.286 158.986,204.286 159.143 C 204.286 159.300,203.707 159.429,203.000 159.429 C 202.293 159.429,201.714 159.557,201.714 159.714 C 201.714 159.871,201.512 160.000,201.265 160.000 C 200.815 160.000,200.000 160.649,200.000 161.008 C 200.000 161.113,199.614 161.560,199.143 162.000 C 198.671 162.440,198.286 163.006,198.286 163.257 C 198.286 163.509,198.157 163.714,198.000 163.714 C 197.843 163.714,197.714 164.229,197.714 164.857 C 197.714 165.486,197.586 166.000,197.429 166.000 C 197.271 166.000,197.143 166.257,197.143 166.571 C 197.143 167.119,196.952 167.143,192.571 167.143 C 189.714 167.143,188.000 167.250,188.000 167.429 C 188.000 167.586,187.743 167.714,187.429 167.714 C 187.114 167.714,186.857 167.849,186.857 168.013 C 186.857 168.588,185.448 169.714,184.727 169.714 C 184.327 169.714,184.000 169.843,184.000 170.000 C 184.000 170.157,183.771 170.286,183.492 170.286 C 183.212 170.286,182.798 170.543,182.571 170.857 C 182.345 171.171,181.867 171.429,181.508 171.429 C 181.075 171.429,180.857 171.598,180.857 171.937 C 180.857 172.217,180.600 172.631,180.286 172.857 C 179.971 173.084,179.714 173.498,179.714 173.777 C 179.714 174.057,179.586 174.286,179.429 174.286 C 179.271 174.286,179.143 174.681,179.143 175.163 C 179.143 176.735,178.774 176.857,174.020 176.857 C 171.340 176.857,169.714 176.965,169.714 177.143 C 169.714 177.300,169.329 177.429,168.857 177.429 C 168.386 177.429,168.000 177.557,168.000 177.714 C 168.000 177.871,167.807 178.000,167.571 178.000 C 167.286 178.000,167.143 178.286,167.143 178.857 C 167.143 179.524,167.016 179.714,166.571 179.714 C 166.257 179.714,166.000 179.843,166.000 180.000 C 166.000 180.157,165.743 180.286,165.429 180.286 C 165.114 180.286,164.857 180.414,164.857 180.571 C 164.857 180.729,164.658 180.857,164.416 180.857 C 163.918 180.857,162.571 182.100,162.571 182.558 C 162.571 182.723,162.443 182.857,162.286 182.857 C 162.129 182.857,162.000 183.114,162.000 183.429 C 162.000 183.743,161.871 184.000,161.714 184.000 C 161.557 184.000,161.429 184.257,161.429 184.571 C 161.429 184.886,161.300 185.143,161.143 185.143 C 160.986 185.143,160.857 185.400,160.857 185.714 C 160.857 186.227,160.667 186.286,159.000 186.286 L 157.143 186.286 157.143 133.571 C 157.143 98.619,157.239 80.857,157.429 80.857 C 157.599 80.857,157.714 81.952,157.714 83.571 " stroke="none" fill="#ffffff" fill-rule="evenodd"></path></g></svg>