<svg id="svg" version="1.1" width="400" height="400" xmlns="http://www.w3.org/2000/svg" xmlns:xlink="http://www.w3.org/1999/xlink" style="display: block;"><g id="svgg"><path id="path0" d="M14.800 2.600 L 14.800 5.200 11.200 5.200 C 9.220 5.200,7.600 5.359,7.600 5.553 C 7.600 5.748,7.240 6.001,6.800 6.116 C 6.360 6.231,6.000 6.612,6.000 6.963 C 6.000 7.313,5.820 7.600,5.600 7.600 C 5.363 7.600,5.200 9.067,5.200 11.200 L 5.200 14.800 2.600 14.800 L 0.000 14.800 0.000 198.200 L 0.000 381.600 2.600 381.600 L 5.200 381.600 5.200 383.357 C 5.200 385.211,5.582 385.600,7.401 385.600 C 8.115 385.600,8.399 385.884,8.600 386.800 C 8.745 387.460,9.029 388.000,9.232 388.000 C 9.434 388.000,9.600 388.244,9.600 388.542 C 9.600 389.375,11.411 391.137,12.566 391.427 C 13.135 391.570,13.600 391.847,13.600 392.043 C 13.600 392.240,13.870 392.400,14.200 392.400 C 14.530 392.400,14.800 392.683,14.800 393.029 C 14.800 394.654,15.913 394.995,21.670 395.130 L 27.200 395.260 27.200 397.630 L 27.200 400.000 196.600 400.000 L 366.000 400.000 366.000 397.659 L 366.000 395.318 372.652 395.099 C 376.311 394.978,379.416 394.709,379.552 394.502 C 379.688 394.295,380.379 394.013,381.087 393.875 C 382.774 393.547,384.006 392.272,384.282 390.570 C 384.405 389.816,384.651 389.200,384.830 389.200 C 385.010 389.200,385.211 388.345,385.278 387.300 L 385.400 385.400 387.700 385.280 C 388.965 385.214,390.000 385.012,390.000 384.830 C 390.000 384.649,390.550 384.390,391.223 384.255 C 392.733 383.953,393.476 383.242,393.842 381.748 C 393.997 381.117,394.284 380.494,394.481 380.364 C 394.678 380.235,394.948 376.950,395.082 373.064 L 395.324 366.000 397.662 366.000 L 400.000 366.000 400.000 196.000 L 400.000 26.000 397.633 26.000 L 395.265 26.000 395.133 21.070 C 394.995 15.951,394.609 14.800,393.029 14.800 C 392.683 14.800,392.400 14.530,392.400 14.200 C 392.400 13.870,392.240 13.600,392.043 13.600 C 391.847 13.600,391.570 13.135,391.427 12.566 C 391.137 11.411,389.375 9.600,388.542 9.600 C 388.244 9.600,388.000 9.434,388.000 9.232 C 388.000 9.029,387.460 8.745,386.800 8.600 C 385.801 8.381,385.600 8.141,385.600 7.168 C 385.600 6.396,385.396 6.000,385.000 6.000 C 384.670 6.000,384.400 5.820,384.400 5.600 C 384.400 5.361,382.867 5.200,380.600 5.200 L 376.800 5.200 376.800 2.600 L 376.800 0.000 195.800 0.000 L 14.800 0.000 14.800 2.600 M338.167 52.643 C 338.736 52.861,338.800 55.771,338.800 81.443 L 338.800 110.000 309.800 110.000 L 280.800 110.000 280.800 81.200 L 280.800 52.400 309.167 52.400 C 324.769 52.400,337.819 52.509,338.167 52.643 M216.000 129.600 C 216.000 130.260,216.156 130.800,216.348 130.800 C 216.539 130.800,216.797 131.428,216.922 132.195 C 217.152 133.616,218.863 135.600,219.858 135.600 C 220.156 135.600,220.400 135.769,220.400 135.975 C 220.400 136.182,221.255 136.477,222.300 136.631 C 223.345 136.785,224.328 137.111,224.485 137.356 C 224.657 137.624,226.558 137.855,229.285 137.938 C 234.421 138.095,234.385 138.071,234.394 141.300 C 234.397 142.565,234.566 143.600,234.768 143.600 C 234.971 143.600,235.252 144.128,235.394 144.774 C 235.588 145.656,235.944 146.012,236.826 146.206 C 237.472 146.348,238.000 146.629,238.000 146.832 C 238.000 147.034,238.945 147.202,240.100 147.205 C 243.320 147.214,244.000 147.500,244.000 148.847 C 244.000 149.481,244.156 150.000,244.347 150.000 C 244.538 150.000,244.790 150.712,244.907 151.582 C 245.123 153.192,246.761 155.200,247.858 155.200 C 248.156 155.200,248.400 155.359,248.400 155.554 C 248.400 155.749,249.390 156.032,250.600 156.183 L 252.800 156.458 252.800 158.829 C 252.800 160.143,252.978 161.200,253.200 161.200 C 253.420 161.200,253.600 161.850,253.600 162.644 C 253.600 164.641,254.923 165.984,256.900 165.993 C 257.725 165.997,258.400 166.180,258.400 166.400 C 258.400 166.620,259.300 166.800,260.400 166.800 L 262.400 166.800 262.400 177.400 C 262.400 184.200,262.543 188.000,262.800 188.000 C 263.053 188.000,263.200 190.933,263.200 196.000 C 263.200 201.067,263.053 204.000,262.800 204.000 C 262.544 204.000,262.400 207.649,262.400 214.146 L 262.400 224.291 260.544 224.546 C 259.523 224.686,258.173 224.800,257.544 224.800 C 256.915 224.800,256.400 224.980,256.400 225.200 C 256.400 225.420,256.170 225.600,255.889 225.600 C 254.860 225.600,253.851 227.375,253.676 229.492 C 253.580 230.651,253.343 231.600,253.150 231.600 C 252.958 231.600,252.800 232.408,252.800 233.395 C 252.800 235.180,252.791 235.192,251.200 235.446 C 250.320 235.587,249.600 235.859,249.600 236.051 C 249.600 236.243,249.344 236.400,249.031 236.400 C 248.292 236.400,246.000 238.692,246.000 239.431 C 246.000 239.744,245.844 240.000,245.653 240.000 C 245.462 240.000,245.207 240.735,245.086 241.633 C 244.817 243.637,244.837 243.617,242.833 243.886 C 241.935 244.007,241.200 244.238,241.200 244.400 C 241.200 244.562,240.484 244.791,239.608 244.908 C 237.593 245.178,235.641 247.040,235.324 248.993 C 235.198 249.767,234.939 250.400,234.748 250.400 C 234.556 250.400,234.400 250.940,234.400 251.600 L 234.400 252.800 230.600 252.800 C 228.333 252.800,226.800 252.961,226.800 253.200 C 226.800 253.420,226.570 253.600,226.289 253.600 C 225.518 253.600,224.400 255.090,224.400 256.116 C 224.400 256.946,223.200 258.390,222.495 258.407 C 222.148 258.415,220.400 260.204,220.400 260.552 C 220.400 262.400,220.406 262.400,197.358 262.400 L 175.693 262.400 175.415 259.800 C 175.262 258.370,174.990 257.200,174.812 257.200 C 174.633 257.200,174.377 256.762,174.242 256.227 C 174.108 255.691,173.594 255.127,173.099 254.973 C 172.605 254.818,172.102 254.541,171.983 254.357 C 171.863 254.172,170.468 253.900,168.883 253.753 C 167.297 253.606,166.000 253.331,166.000 253.143 C 166.000 252.954,164.020 252.800,161.600 252.800 L 157.200 252.800 157.200 250.200 C 157.200 248.733,157.026 247.600,156.800 247.600 C 156.580 247.600,156.400 247.100,156.400 246.489 C 156.400 244.630,155.171 243.972,151.218 243.716 L 147.711 243.489 147.468 240.049 C 147.335 238.157,147.040 236.547,146.813 236.471 C 146.586 236.395,146.400 236.078,146.400 235.767 C 146.400 235.455,146.145 235.200,145.833 235.200 C 145.522 235.200,145.205 235.014,145.129 234.787 C 145.053 234.560,143.433 234.265,141.529 234.130 L 138.066 233.886 137.933 229.328 C 137.839 226.091,137.646 224.675,137.270 224.442 C 136.978 224.262,136.639 223.369,136.517 222.458 C 136.395 221.546,136.138 220.800,135.947 220.800 C 135.756 220.800,135.600 220.593,135.600 220.340 C 135.600 219.326,132.757 217.118,131.178 216.906 C 130.310 216.790,129.600 216.538,129.600 216.347 C 129.600 216.156,129.330 216.000,129.000 216.000 C 128.475 216.000,128.400 213.489,128.400 195.800 C 128.400 178.111,128.475 175.600,129.000 175.600 C 129.330 175.600,129.600 175.420,129.600 175.200 C 129.600 174.980,130.164 174.800,130.854 174.800 C 132.960 174.800,135.160 173.956,135.446 173.039 C 135.590 172.578,135.877 172.091,136.084 171.958 C 136.291 171.824,136.564 170.924,136.690 169.958 C 136.817 168.991,137.111 168.076,137.344 167.924 C 137.593 167.762,137.836 165.487,137.932 162.424 L 138.095 157.200 141.047 157.200 C 142.749 157.200,144.000 157.031,144.000 156.800 C 144.000 156.580,144.410 156.400,144.911 156.400 C 146.619 156.400,147.347 154.939,147.528 151.147 L 147.693 147.693 151.147 147.528 C 154.939 147.347,156.400 146.619,156.400 144.911 C 156.400 144.410,156.580 144.000,156.800 144.000 C 157.030 144.000,157.200 142.752,157.200 141.056 L 157.200 138.112 164.882 137.911 C 170.101 137.774,172.612 137.564,172.715 137.255 C 172.798 137.005,173.082 136.800,173.344 136.800 C 174.692 136.800,175.909 133.254,175.987 129.100 C 175.999 128.443,177.224 128.400,196.000 128.400 L 216.000 128.400 216.000 129.600 M72.000 177.200 C 72.000 178.267,71.867 178.400,70.800 178.400 C 70.140 178.400,69.600 178.560,69.600 178.757 C 69.600 178.953,69.135 179.230,68.566 179.373 C 67.432 179.657,65.600 181.419,65.600 182.225 C 65.600 182.505,65.416 182.795,65.191 182.870 C 64.965 182.945,64.668 183.725,64.529 184.603 C 64.390 185.481,64.085 186.325,63.851 186.477 C 63.590 186.648,63.364 189.316,63.266 193.377 C 63.178 197.020,62.947 200.000,62.753 200.000 C 62.559 200.000,62.400 201.350,62.400 203.000 C 62.400 204.650,62.553 206.000,62.740 206.000 C 62.926 206.000,63.184 208.367,63.313 211.260 C 63.442 214.153,63.711 216.628,63.912 216.760 C 64.113 216.892,64.404 217.518,64.559 218.151 C 64.935 219.686,66.856 221.551,68.374 221.855 C 69.048 221.990,69.600 222.257,69.600 222.450 C 69.600 222.643,70.140 222.800,70.800 222.800 L 72.000 222.800 72.000 235.600 C 72.000 243.867,72.142 248.400,72.400 248.400 C 72.620 248.400,72.800 248.837,72.800 249.371 C 72.800 250.448,73.745 251.600,74.629 251.600 C 74.943 251.600,75.200 251.780,75.200 252.000 C 75.200 252.227,76.371 252.403,77.900 252.406 C 81.715 252.415,81.496 251.914,81.661 261.000 C 81.823 269.872,82.090 270.800,84.489 270.800 C 85.100 270.800,85.600 270.980,85.600 271.200 C 85.600 271.428,86.787 271.600,88.361 271.600 L 91.123 271.600 91.261 275.329 C 91.448 280.355,91.656 280.555,96.871 280.737 L 100.800 280.875 100.800 284.864 C 100.800 290.442,100.764 290.400,105.571 290.400 C 110.198 290.400,110.000 290.193,110.000 295.033 C 110.000 297.011,110.165 298.400,110.400 298.400 C 110.620 298.400,110.800 298.649,110.800 298.953 C 110.800 299.736,112.084 299.988,116.100 299.995 L 119.600 300.000 119.600 303.000 C 119.600 304.650,119.758 306.000,119.950 306.000 C 120.142 306.000,120.409 306.544,120.542 307.208 C 120.731 308.153,121.047 308.469,121.992 308.658 C 122.656 308.791,123.200 309.058,123.200 309.250 C 123.200 309.443,125.180 309.600,127.600 309.600 C 131.244 309.600,132.000 309.703,132.000 310.200 C 132.000 310.530,132.160 310.800,132.357 310.800 C 132.553 310.800,132.830 311.265,132.973 311.834 C 133.263 312.989,135.025 314.800,135.858 314.800 C 136.156 314.800,136.400 314.966,136.400 315.168 C 136.400 315.371,136.929 315.653,137.576 315.795 C 138.473 315.992,138.781 316.308,138.876 317.127 C 138.973 317.962,139.244 318.228,140.100 318.327 C 140.705 318.396,141.200 318.621,141.200 318.827 C 141.200 319.046,144.817 319.200,150.000 319.200 L 158.800 319.200 158.800 320.400 C 158.800 321.060,158.958 321.600,159.150 321.600 C 159.343 321.600,159.609 322.145,159.742 322.812 C 159.998 324.092,161.744 326.000,162.658 326.000 C 162.956 326.000,163.200 326.169,163.200 326.375 C 163.200 326.582,164.055 326.877,165.100 327.031 C 166.145 327.185,167.128 327.511,167.285 327.756 C 167.724 328.438,228.073 328.383,228.300 327.700 C 228.392 327.425,228.831 327.200,229.277 327.200 C 230.287 327.200,231.984 325.638,231.993 324.700 C 231.997 324.315,232.180 324.000,232.400 324.000 C 232.622 324.000,232.800 322.933,232.800 321.600 L 232.800 319.200 242.600 319.200 C 247.990 319.200,252.400 319.046,252.400 318.858 C 252.400 318.670,253.703 318.407,255.295 318.273 C 256.887 318.140,258.252 317.844,258.328 317.615 C 258.404 317.387,258.727 317.200,259.046 317.200 C 259.364 317.200,259.741 316.885,259.883 316.500 C 260.025 316.115,260.298 315.694,260.489 315.565 C 260.679 315.436,260.944 314.041,261.076 312.465 L 261.316 309.600 265.458 309.600 C 267.736 309.600,269.600 309.440,269.600 309.243 C 269.600 309.047,270.050 308.774,270.600 308.636 C 271.319 308.455,271.600 308.115,271.600 307.424 C 271.600 306.682,271.873 306.404,272.800 306.200 C 273.460 306.055,274.000 305.771,274.000 305.568 C 274.000 305.366,274.204 305.200,274.454 305.200 C 275.134 305.200,276.759 303.304,277.040 302.183 C 277.176 301.642,277.447 301.200,277.643 301.200 C 277.840 301.200,278.000 300.955,278.000 300.656 C 278.000 300.100,280.649 299.611,283.700 299.603 C 284.525 299.602,285.200 299.443,285.200 299.250 C 285.200 299.058,285.750 298.790,286.423 298.655 C 287.973 298.345,288.745 297.573,289.055 296.023 C 289.190 295.350,289.449 294.800,289.630 294.800 C 289.812 294.800,290.014 293.765,290.080 292.500 L 290.200 290.200 292.500 290.080 C 293.765 290.014,294.800 289.812,294.800 289.630 C 294.800 289.449,295.350 289.190,296.023 289.055 C 297.573 288.745,298.345 287.973,298.655 286.423 C 298.790 285.750,299.037 285.200,299.203 285.200 C 299.370 285.200,299.581 284.037,299.671 282.615 C 299.864 279.583,299.855 279.597,301.967 279.314 C 302.865 279.193,303.600 278.938,303.600 278.747 C 303.600 278.556,303.807 278.400,304.060 278.400 C 304.967 278.400,307.252 275.589,307.479 274.193 C 307.603 273.427,307.847 272.800,308.021 272.800 C 308.194 272.800,308.455 272.260,308.600 271.600 C 308.745 270.940,309.029 270.400,309.232 270.400 C 309.434 270.400,309.600 268.510,309.600 266.200 L 309.600 262.000 311.000 262.000 C 311.770 262.000,312.400 261.842,312.400 261.650 C 312.400 261.457,313.371 261.219,314.558 261.120 C 317.344 260.889,318.089 260.144,318.320 257.358 C 318.419 256.171,318.657 255.200,318.850 255.200 C 319.042 255.200,319.203 252.095,319.206 248.300 C 319.213 240.624,319.213 240.623,321.261 240.247 C 322.065 240.099,322.824 239.713,322.949 239.389 C 323.073 239.065,323.451 238.800,323.787 238.800 C 324.124 238.800,324.400 238.530,324.400 238.200 C 324.400 237.870,324.573 237.600,324.784 237.600 C 324.995 237.600,325.394 236.835,325.670 235.900 C 325.945 234.965,326.403 233.962,326.686 233.671 C 326.969 233.381,327.200 232.901,327.200 232.605 C 327.200 232.309,327.425 231.992,327.700 231.900 C 328.092 231.770,328.225 225.720,328.318 203.867 L 328.436 176.000 333.618 176.000 L 338.800 176.000 338.800 257.400 L 338.800 338.800 195.600 338.800 L 52.400 338.800 52.400 257.400 L 52.400 176.000 62.200 176.000 L 72.000 176.000 72.000 177.200 " stroke="none" fill="#ffffff" fill-rule="evenodd"></path><path id="path1" d="M14.800 2.600 L 14.800 5.200 11.200 5.200 C 9.220 5.200,7.600 5.359,7.600 5.553 C 7.600 5.748,7.240 6.001,6.800 6.116 C 6.360 6.231,6.000 6.612,6.000 6.963 C 6.000 7.313,5.820 7.600,5.600 7.600 C 5.363 7.600,5.200 9.067,5.200 11.200 L 5.200 14.800 2.600 14.800 L 0.000 14.800 0.000 198.200 L 0.000 381.600 2.600 381.600 L 5.200 381.600 5.200 383.357 C 5.200 385.211,5.582 385.600,7.401 385.600 C 8.115 385.600,8.399 385.884,8.600 386.800 C 8.745 387.460,9.029 388.000,9.232 388.000 C 9.434 388.000,9.600 388.244,9.600 388.542 C 9.600 389.375,11.411 391.137,12.566 391.427 C 13.135 391.570,13.600 391.847,13.600 392.043 C 13.600 392.240,13.870 392.400,14.200 392.400 C 14.530 392.400,14.800 392.683,14.800 393.029 C 14.800 394.654,15.913 394.995,21.670 395.130 L 27.200 395.260 27.200 397.630 L 27.200 400.000 196.600 400.000 L 366.000 400.000 366.000 397.659 L 366.000 395.318 372.652 395.099 C 376.311 394.978,379.416 394.709,379.552 394.502 C 379.688 394.295,380.379 394.013,381.087 393.875 C 382.774 393.547,384.006 392.272,384.282 390.570 C 384.405 389.816,384.651 389.200,384.830 389.200 C 385.010 389.200,385.211 388.345,385.278 387.300 L 385.400 385.400 387.700 385.280 C 388.965 385.214,390.000 385.012,390.000 384.830 C 390.000 384.649,390.550 384.390,391.223 384.255 C 392.733 383.953,393.476 383.242,393.842 381.748 C 393.997 381.117,394.284 380.494,394.481 380.364 C 394.678 380.235,394.948 376.950,395.082 373.064 L 395.324 366.000 397.662 366.000 L 400.000 366.000 400.000 196.000 L 400.000 26.000 397.633 26.000 L 395.265 26.000 395.133 21.070 C 394.995 15.951,394.609 14.800,393.029 14.800 C 392.683 14.800,392.400 14.530,392.400 14.200 C 392.400 13.870,392.240 13.600,392.043 13.600 C 391.847 13.600,391.570 13.135,391.427 12.566 C 391.137 11.411,389.375 9.600,388.542 9.600 C 388.244 9.600,388.000 9.434,388.000 9.232 C 388.000 9.029,387.460 8.745,386.800 8.600 C 385.801 8.381,385.600 8.141,385.600 7.168 C 385.600 6.396,385.396 6.000,385.000 6.000 C 384.670 6.000,384.400 5.820,384.400 5.600 C 384.400 5.361,382.867 5.200,380.600 5.200 L 376.800 5.200 376.800 2.600 L 376.800 0.000 195.800 0.000 L 14.800 0.000 14.800 2.600 M338.167 52.643 C 338.736 52.861,338.800 55.771,338.800 81.443 L 338.800 110.000 309.800 110.000 L 280.800 110.000 280.800 81.200 L 280.800 52.400 309.167 52.400 C 324.769 52.400,337.819 52.509,338.167 52.643 M216.000 129.600 C 216.000 130.260,216.156 130.800,216.348 130.800 C 216.539 130.800,216.797 131.428,216.922 132.195 C 217.152 133.616,218.863 135.600,219.858 135.600 C 220.156 135.600,220.400 135.769,220.400 135.975 C 220.400 136.182,221.255 136.477,222.300 136.631 C 223.345 136.785,224.328 137.111,224.485 137.356 C 224.657 137.624,226.558 137.855,229.285 137.938 C 234.421 138.095,234.385 138.071,234.394 141.300 C 234.397 142.565,234.566 143.600,234.768 143.600 C 234.971 143.600,235.252 144.128,235.394 144.774 C 235.588 145.656,235.944 146.012,236.826 146.206 C 237.472 146.348,238.000 146.629,238.000 146.832 C 238.000 147.034,238.945 147.202,240.100 147.205 C 243.320 147.214,244.000 147.500,244.000 148.847 C 244.000 149.481,244.156 150.000,244.347 150.000 C 244.538 150.000,244.790 150.712,244.907 151.582 C 245.123 153.192,246.761 155.200,247.858 155.200 C 248.156 155.200,248.400 155.359,248.400 155.554 C 248.400 155.749,249.390 156.032,250.600 156.183 L 252.800 156.458 252.800 158.829 C 252.800 160.143,252.978 161.200,253.200 161.200 C 253.420 161.200,253.600 161.850,253.600 162.644 C 253.600 164.641,254.923 165.984,256.900 165.993 C 257.725 165.997,258.400 166.180,258.400 166.400 C 258.400 166.620,259.300 166.800,260.400 166.800 L 262.400 166.800 262.400 177.400 C 262.400 184.200,262.543 188.000,262.800 188.000 C 263.053 188.000,263.200 190.933,263.200 196.000 C 263.200 201.067,263.053 204.000,262.800 204.000 C 262.544 204.000,262.400 207.649,262.400 214.146 L 262.400 224.291 260.544 224.546 C 259.523 224.686,258.173 224.800,257.544 224.800 C 256.915 224.800,256.400 224.980,256.400 225.200 C 256.400 225.420,256.170 225.600,255.889 225.600 C 254.860 225.600,253.851 227.375,253.676 229.492 C 253.580 230.651,253.343 231.600,253.150 231.600 C 252.958 231.600,252.800 232.408,252.800 233.395 C 252.800 235.180,252.791 235.192,251.200 235.446 C 250.320 235.587,249.600 235.859,249.600 236.051 C 249.600 236.243,249.344 236.400,249.031 236.400 C 248.292 236.400,246.000 238.692,246.000 239.431 C 246.000 239.744,245.844 240.000,245.653 240.000 C 245.462 240.000,245.207 240.735,245.086 241.633 C 244.817 243.637,244.837 243.617,242.833 243.886 C 241.935 244.007,241.200 244.238,241.200 244.400 C 241.200 244.562,240.484 244.791,239.608 244.908 C 237.593 245.178,235.641 247.040,235.324 248.993 C 235.198 249.767,234.939 250.400,234.748 250.400 C 234.556 250.400,234.400 250.940,234.400 251.600 L 234.400 252.800 230.600 252.800 C 228.333 252.800,226.800 252.961,226.800 253.200 C 226.800 253.420,226.570 253.600,226.289 253.600 C 225.518 253.600,224.400 255.090,224.400 256.116 C 224.400 256.946,223.200 258.390,222.495 258.407 C 222.148 258.415,220.400 260.204,220.400 260.552 C 220.400 262.400,220.406 262.400,197.358 262.400 L 175.693 262.400 175.415 259.800 C 175.262 258.370,174.990 257.200,174.812 257.200 C 174.633 257.200,174.377 256.762,174.242 256.227 C 174.108 255.691,173.594 255.127,173.099 254.973 C 172.605 254.818,172.102 254.541,171.983 254.357 C 171.863 254.172,170.468 253.900,168.883 253.753 C 167.297 253.606,166.000 253.331,166.000 253.143 C 166.000 252.954,164.020 252.800,161.600 252.800 L 157.200 252.800 157.200 250.200 C 157.200 248.733,157.026 247.600,156.800 247.600 C 156.580 247.600,156.400 247.100,156.400 246.489 C 156.400 244.630,155.171 243.972,151.218 243.716 L 147.711 243.489 147.468 240.049 C 147.335 238.157,147.040 236.547,146.813 236.471 C 146.586 236.395,146.400 236.078,146.400 235.767 C 146.400 235.455,146.145 235.200,145.833 235.200 C 145.522 235.200,145.205 235.014,145.129 234.787 C 145.053 234.560,143.433 234.265,141.529 234.130 L 138.066 233.886 137.933 229.328 C 137.839 226.091,137.646 224.675,137.270 224.442 C 136.978 224.262,136.639 223.369,136.517 222.458 C 136.395 221.546,136.138 220.800,135.947 220.800 C 135.756 220.800,135.600 220.593,135.600 220.340 C 135.600 219.326,132.757 217.118,131.178 216.906 C 130.310 216.790,129.600 216.538,129.600 216.347 C 129.600 216.156,129.330 216.000,129.000 216.000 C 128.475 216.000,128.400 213.489,128.400 195.800 C 128.400 178.111,128.475 175.600,129.000 175.600 C 129.330 175.600,129.600 175.420,129.600 175.200 C 129.600 174.980,130.164 174.800,130.854 174.800 C 132.960 174.800,135.160 173.956,135.446 173.039 C 135.590 172.578,135.877 172.091,136.084 171.958 C 136.291 171.824,136.564 170.924,136.690 169.958 C 136.817 168.991,137.111 168.076,137.344 167.924 C 137.593 167.762,137.836 165.487,137.932 162.424 L 138.095 157.200 141.047 157.200 C 142.749 157.200,144.000 157.031,144.000 156.800 C 144.000 156.580,144.410 156.400,144.911 156.400 C 146.619 156.400,147.347 154.939,147.528 151.147 L 147.693 147.693 151.147 147.528 C 154.939 147.347,156.400 146.619,156.400 144.911 C 156.400 144.410,156.580 144.000,156.800 144.000 C 157.030 144.000,157.200 142.752,157.200 141.056 L 157.200 138.112 164.882 137.911 C 170.101 137.774,172.612 137.564,172.715 137.255 C 172.798 137.005,173.082 136.800,173.344 136.800 C 174.692 136.800,175.909 133.254,175.987 129.100 C 175.999 128.443,177.224 128.400,196.000 128.400 L 216.000 128.400 216.000 129.600 M72.000 177.200 C 72.000 178.267,71.867 178.400,70.800 178.400 C 70.140 178.400,69.600 178.560,69.600 178.757 C 69.600 178.953,69.135 179.230,68.566 179.373 C 67.432 179.657,65.600 181.419,65.600 182.225 C 65.600 182.505,65.416 182.795,65.191 182.870 C 64.965 182.945,64.668 183.725,64.529 184.603 C 64.390 185.481,64.085 186.325,63.851 186.477 C 63.590 186.648,63.364 189.316,63.266 193.377 C 63.178 197.020,62.947 200.000,62.753 200.000 C 62.559 200.000,62.400 201.350,62.400 203.000 C 62.400 204.650,62.553 206.000,62.740 206.000 C 62.926 206.000,63.184 208.367,63.313 211.260 C 63.442 214.153,63.711 216.628,63.912 216.760 C 64.113 216.892,64.404 217.518,64.559 218.151 C 64.935 219.686,66.856 221.551,68.374 221.855 C 69.048 221.990,69.600 222.257,69.600 222.450 C 69.600 222.643,70.140 222.800,70.800 222.800 L 72.000 222.800 72.000 235.600 C 72.000 243.867,72.142 248.400,72.400 248.400 C 72.620 248.400,72.800 248.837,72.800 249.371 C 72.800 250.448,73.745 251.600,74.629 251.600 C 74.943 251.600,75.200 251.780,75.200 252.000 C 75.200 252.227,76.371 252.403,77.900 252.406 C 81.715 252.415,81.496 251.914,81.661 261.000 C 81.823 269.872,82.090 270.800,84.489 270.800 C 85.100 270.800,85.600 270.980,85.600 271.200 C 85.600 271.428,86.787 271.600,88.361 271.600 L 91.123 271.600 91.261 275.329 C 91.448 280.355,91.656 280.555,96.871 280.737 L 100.800 280.875 100.800 284.864 C 100.800 290.442,100.764 290.400,105.571 290.400 C 110.198 290.400,110.000 290.193,110.000 295.033 C 110.000 297.011,110.165 298.400,110.400 298.400 C 110.620 298.400,110.800 298.649,110.800 298.953 C 110.800 299.736,112.084 299.988,116.100 299.995 L 119.600 300.000 119.600 303.000 C 119.600 304.650,119.758 306.000,119.950 306.000 C 120.142 306.000,120.409 306.544,120.542 307.208 C 120.731 308.153,121.047 308.469,121.992 308.658 C 122.656 308.791,123.200 309.058,123.200 309.250 C 123.200 309.443,125.180 309.600,127.600 309.600 C 131.244 309.600,132.000 309.703,132.000 310.200 C 132.000 310.530,132.160 310.800,132.357 310.800 C 132.553 310.800,132.830 311.265,132.973 311.834 C 133.263 312.989,135.025 314.800,135.858 314.800 C 136.156 314.800,136.400 314.966,136.400 315.168 C 136.400 315.371,136.929 315.653,137.576 315.795 C 138.473 315.992,138.781 316.308,138.876 317.127 C 138.973 317.962,139.244 318.228,140.100 318.327 C 140.705 318.396,141.200 318.621,141.200 318.827 C 141.200 319.046,144.817 319.200,150.000 319.200 L 158.800 319.200 158.800 320.400 C 158.800 321.060,158.958 321.600,159.150 321.600 C 159.343 321.600,159.609 322.145,159.742 322.812 C 159.998 324.092,161.744 326.000,162.658 326.000 C 162.956 326.000,163.200 326.169,163.200 326.375 C 163.200 326.582,164.055 326.877,165.100 327.031 C 166.145 327.185,167.128 327.511,167.285 327.756 C 167.724 328.438,228.073 328.383,228.300 327.700 C 228.392 327.425,228.831 327.200,229.277 327.200 C 230.287 327.200,231.984 325.638,231.993 324.700 C 231.997 324.315,232.180 324.000,232.400 324.000 C 232.622 324.000,232.800 322.933,232.800 321.600 L 232.800 319.200 242.600 319.200 C 247.990 319.200,252.400 319.046,252.400 318.858 C 252.400 318.670,253.703 318.407,255.295 318.273 C 256.887 318.140,258.252 317.844,258.328 317.615 C 258.404 317.387,258.727 317.200,259.046 317.200 C 259.364 317.200,259.741 316.885,259.883 316.500 C 260.025 316.115,260.298 315.694,260.489 315.565 C 260.679 315.436,260.944 314.041,261.076 312.465 L 261.316 309.600 265.458 309.600 C 267.736 309.600,269.600 309.440,269.600 309.243 C 269.600 309.047,270.050 308.774,270.600 308.636 C 271.319 308.455,271.600 308.115,271.600 307.424 C 271.600 306.682,271.873 306.404,272.800 306.200 C 273.460 306.055,274.000 305.771,274.000 305.568 C 274.000 305.366,274.204 305.200,274.454 305.200 C 275.134 305.200,276.759 303.304,277.040 302.183 C 277.176 301.642,277.447 301.200,277.643 301.200 C 277.840 301.200,278.000 300.955,278.000 300.656 C 278.000 300.100,280.649 299.611,283.700 299.603 C 284.525 299.602,285.200 299.443,285.200 299.250 C 285.200 299.058,285.750 298.790,286.423 298.655 C 287.973 298.345,288.745 297.573,289.055 296.023 C 289.190 295.350,289.449 294.800,289.630 294.800 C 289.812 294.800,290.014 293.765,290.080 292.500 L 290.200 290.200 292.500 290.080 C 293.765 290.014,294.800 289.812,294.800 289.630 C 294.800 289.449,295.350 289.190,296.023 289.055 C 297.573 288.745,298.345 287.973,298.655 286.423 C 298.790 285.750,299.037 285.200,299.203 285.200 C 299.370 285.200,299.581 284.037,299.671 282.615 C 299.864 279.583,299.855 279.597,301.967 279.314 C 302.865 279.193,303.600 278.938,303.600 278.747 C 303.600 278.556,303.807 278.400,304.060 278.400 C 304.967 278.400,307.252 275.589,307.479 274.193 C 307.603 273.427,307.847 272.800,308.021 272.800 C 308.194 272.800,308.455 272.260,308.600 271.600 C 308.745 270.940,309.029 270.400,309.232 270.400 C 309.434 270.400,309.600 268.510,309.600 266.200 L 309.600 262.000 311.000 262.000 C 311.770 262.000,312.400 261.842,312.400 261.650 C 312.400 261.457,313.371 261.219,314.558 261.120 C 317.344 260.889,318.089 260.144,318.320 257.358 C 318.419 256.171,318.657 255.200,318.850 255.200 C 319.042 255.200,319.203 252.095,319.206 248.300 C 319.213 240.624,319.213 240.623,321.261 240.247 C 322.065 240.099,322.824 239.713,322.949 239.389 C 323.073 239.065,323.451 238.800,323.787 238.800 C 324.124 238.800,324.400 238.530,324.400 238.200 C 324.400 237.870,324.573 237.600,324.784 237.600 C 324.995 237.600,325.394 236.835,325.670 235.900 C 325.945 234.965,326.403 233.962,326.686 233.671 C 326.969 233.381,327.200 232.901,327.200 232.605 C 327.200 232.309,327.425 231.992,327.700 231.900 C 328.092 231.770,328.225 225.720,328.318 203.867 L 328.436 176.000 333.618 176.000 L 338.800 176.000 338.800 257.400 L 338.800 338.800 195.600 338.800 L 52.400 338.800 52.400 257.400 L 52.400 176.000 62.200 176.000 L 72.000 176.000 72.000 177.200 " stroke="none" fill="#ffffff" fill-rule="evenodd"></path><path id="path2" d="M14.800 2.600 L 14.800 5.200 11.200 5.200 C 9.220 5.200,7.600 5.359,7.600 5.553 C 7.600 5.748,7.240 6.001,6.800 6.116 C 6.360 6.231,6.000 6.612,6.000 6.963 C 6.000 7.313,5.820 7.600,5.600 7.600 C 5.363 7.600,5.200 9.067,5.200 11.200 L 5.200 14.800 2.600 14.800 L 0.000 14.800 0.000 198.200 L 0.000 381.600 2.600 381.600 L 5.200 381.600 5.200 383.357 C 5.200 385.211,5.582 385.600,7.401 385.600 C 8.115 385.600,8.399 385.884,8.600 386.800 C 8.745 387.460,9.029 388.000,9.232 388.000 C 9.434 388.000,9.600 388.244,9.600 388.542 C 9.600 389.375,11.411 391.137,12.566 391.427 C 13.135 391.570,13.600 391.847,13.600 392.043 C 13.600 392.240,13.870 392.400,14.200 392.400 C 14.530 392.400,14.800 392.683,14.800 393.029 C 14.800 394.654,15.913 394.995,21.670 395.130 L 27.200 395.260 27.200 397.630 L 27.200 400.000 196.600 400.000 L 366.000 400.000 366.000 397.659 L 366.000 395.318 372.652 395.099 C 376.311 394.978,379.416 394.709,379.552 394.502 C 379.688 394.295,380.379 394.013,381.087 393.875 C 382.774 393.547,384.006 392.272,384.282 390.570 C 384.405 389.816,384.651 389.200,384.830 389.200 C 385.010 389.200,385.211 388.345,385.278 387.300 L 385.400 385.400 387.700 385.280 C 388.965 385.214,390.000 385.012,390.000 384.830 C 390.000 384.649,390.550 384.390,391.223 384.255 C 392.733 383.953,393.476 383.242,393.842 381.748 C 393.997 381.117,394.284 380.494,394.481 380.364 C 394.678 380.235,394.948 376.950,395.082 373.064 L 395.324 366.000 397.662 366.000 L 400.000 366.000 400.000 196.000 L 400.000 26.000 397.633 26.000 L 395.265 26.000 395.133 21.070 C 394.995 15.951,394.609 14.800,393.029 14.800 C 392.683 14.800,392.400 14.530,392.400 14.200 C 392.400 13.870,392.240 13.600,392.043 13.600 C 391.847 13.600,391.570 13.135,391.427 12.566 C 391.137 11.411,389.375 9.600,388.542 9.600 C 388.244 9.600,388.000 9.434,388.000 9.232 C 388.000 9.029,387.460 8.745,386.800 8.600 C 385.801 8.381,385.600 8.141,385.600 7.168 C 385.600 6.396,385.396 6.000,385.000 6.000 C 384.670 6.000,384.400 5.820,384.400 5.600 C 384.400 5.361,382.867 5.200,380.600 5.200 L 376.800 5.200 376.800 2.600 L 376.800 0.000 195.800 0.000 L 14.800 0.000 14.800 2.600 M338.167 52.643 C 338.736 52.861,338.800 55.771,338.800 81.443 L 338.800 110.000 309.800 110.000 L 280.800 110.000 280.800 81.200 L 280.800 52.400 309.167 52.400 C 324.769 52.400,337.819 52.509,338.167 52.643 M216.000 129.600 C 216.000 130.260,216.156 130.800,216.348 130.800 C 216.539 130.800,216.797 131.428,216.922 132.195 C 217.152 133.616,218.863 135.600,219.858 135.600 C 220.156 135.600,220.400 135.769,220.400 135.975 C 220.400 136.182,221.255 136.477,222.300 136.631 C 223.345 136.785,224.328 137.111,224.485 137.356 C 224.657 137.624,226.558 137.855,229.285 137.938 C 234.421 138.095,234.385 138.071,234.394 141.300 C 234.397 142.565,234.566 143.600,234.768 143.600 C 234.971 143.600,235.252 144.128,235.394 144.774 C 235.588 145.656,235.944 146.012,236.826 146.206 C 237.472 146.348,238.000 146.629,238.000 146.832 C 238.000 147.034,238.945 147.202,240.100 147.205 C 243.320 147.214,244.000 147.500,244.000 148.847 C 244.000 149.481,244.156 150.000,244.347 150.000 C 244.538 150.000,244.790 150.712,244.907 151.582 C 245.123 153.192,246.761 155.200,247.858 155.200 C 248.156 155.200,248.400 155.359,248.400 155.554 C 248.400 155.749,249.390 156.032,250.600 156.183 L 252.800 156.458 252.800 158.829 C 252.800 160.143,252.978 161.200,253.200 161.200 C 253.420 161.200,253.600 161.850,253.600 162.644 C 253.600 164.641,254.923 165.984,256.900 165.993 C 257.725 165.997,258.400 166.180,258.400 166.400 C 258.400 166.620,259.300 166.800,260.400 166.800 L 262.400 166.800 262.400 177.400 C 262.400 184.200,262.543 188.000,262.800 188.000 C 263.053 188.000,263.200 190.933,263.200 196.000 C 263.200 201.067,263.053 204.000,262.800 204.000 C 262.544 204.000,262.400 207.649,262.400 214.146 L 262.400 224.291 260.544 224.546 C 259.523 224.686,258.173 224.800,257.544 224.800 C 256.915 224.800,256.400 224.980,256.400 225.200 C 256.400 225.420,256.170 225.600,255.889 225.600 C 254.860 225.600,253.851 227.375,253.676 229.492 C 253.580 230.651,253.343 231.600,253.150 231.600 C 252.958 231.600,252.800 232.408,252.800 233.395 C 252.800 235.180,252.791 235.192,251.200 235.446 C 250.320 235.587,249.600 235.859,249.600 236.051 C 249.600 236.243,249.344 236.400,249.031 236.400 C 248.292 236.400,246.000 238.692,246.000 239.431 C 246.000 239.744,245.844 240.000,245.653 240.000 C 245.462 240.000,245.207 240.735,245.086 241.633 C 244.817 243.637,244.837 243.617,242.833 243.886 C 241.935 244.007,241.200 244.238,241.200 244.400 C 241.200 244.562,240.484 244.791,239.608 244.908 C 237.593 245.178,235.641 247.040,235.324 248.993 C 235.198 249.767,234.939 250.400,234.748 250.400 C 234.556 250.400,234.400 250.940,234.400 251.600 L 234.400 252.800 230.600 252.800 C 228.333 252.800,226.800 252.961,226.800 253.200 C 226.800 253.420,226.570 253.600,226.289 253.600 C 225.518 253.600,224.400 255.090,224.400 256.116 C 224.400 256.946,223.200 258.390,222.495 258.407 C 222.148 258.415,220.400 260.204,220.400 260.552 C 220.400 262.400,220.406 262.400,197.358 262.400 L 175.693 262.400 175.415 259.800 C 175.262 258.370,174.990 257.200,174.812 257.200 C 174.633 257.200,174.377 256.762,174.242 256.227 C 174.108 255.691,173.594 255.127,173.099 254.973 C 172.605 254.818,172.102 254.541,171.983 254.357 C 171.863 254.172,170.468 253.900,168.883 253.753 C 167.297 253.606,166.000 253.331,166.000 253.143 C 166.000 252.954,164.020 252.800,161.600 252.800 L 157.200 252.800 157.200 250.200 C 157.200 248.733,157.026 247.600,156.800 247.600 C 156.580 247.600,156.400 247.100,156.400 246.489 C 156.400 244.630,155.171 243.972,151.218 243.716 L 147.711 243.489 147.468 240.049 C 147.335 238.157,147.040 236.547,146.813 236.471 C 146.586 236.395,146.400 236.078,146.400 235.767 C 146.400 235.455,146.145 235.200,145.833 235.200 C 145.522 235.200,145.205 235.014,145.129 234.787 C 145.053 234.560,143.433 234.265,141.529 234.130 L 138.066 233.886 137.933 229.328 C 137.839 226.091,137.646 224.675,137.270 224.442 C 136.978 224.262,136.639 223.369,136.517 222.458 C 136.395 221.546,136.138 220.800,135.947 220.800 C 135.756 220.800,135.600 220.593,135.600 220.340 C 135.600 219.326,132.757 217.118,131.178 216.906 C 130.310 216.790,129.600 216.538,129.600 216.347 C 129.600 216.156,129.330 216.000,129.000 216.000 C 128.475 216.000,128.400 213.489,128.400 195.800 C 128.400 178.111,128.475 175.600,129.000 175.600 C 129.330 175.600,129.600 175.420,129.600 175.200 C 129.600 174.980,130.164 174.800,130.854 174.800 C 132.960 174.800,135.160 173.956,135.446 173.039 C 135.590 172.578,135.877 172.091,136.084 171.958 C 136.291 171.824,136.564 170.924,136.690 169.958 C 136.817 168.991,137.111 168.076,137.344 167.924 C 137.593 167.762,137.836 165.487,137.932 162.424 L 138.095 157.200 141.047 157.200 C 142.749 157.200,144.000 157.031,144.000 156.800 C 144.000 156.580,144.410 156.400,144.911 156.400 C 146.619 156.400,147.347 154.939,147.528 151.147 L 147.693 147.693 151.147 147.528 C 154.939 147.347,156.400 146.619,156.400 144.911 C 156.400 144.410,156.580 144.000,156.800 144.000 C 157.030 144.000,157.200 142.752,157.200 141.056 L 157.200 138.112 164.882 137.911 C 170.101 137.774,172.612 137.564,172.715 137.255 C 172.798 137.005,173.082 136.800,173.344 136.800 C 174.692 136.800,175.909 133.254,175.987 129.100 C 175.999 128.443,177.224 128.400,196.000 128.400 L 216.000 128.400 216.000 129.600 M72.000 177.200 C 72.000 178.267,71.867 178.400,70.800 178.400 C 70.140 178.400,69.600 178.560,69.600 178.757 C 69.600 178.953,69.135 179.230,68.566 179.373 C 67.432 179.657,65.600 181.419,65.600 182.225 C 65.600 182.505,65.416 182.795,65.191 182.870 C 64.965 182.945,64.668 183.725,64.529 184.603 C 64.390 185.481,64.085 186.325,63.851 186.477 C 63.590 186.648,63.364 189.316,63.266 193.377 C 63.178 197.020,62.947 200.000,62.753 200.000 C 62.559 200.000,62.400 201.350,62.400 203.000 C 62.400 204.650,62.553 206.000,62.740 206.000 C 62.926 206.000,63.184 208.367,63.313 211.260 C 63.442 214.153,63.711 216.628,63.912 216.760 C 64.113 216.892,64.404 217.518,64.559 218.151 C 64.935 219.686,66.856 221.551,68.374 221.855 C 69.048 221.990,69.600 222.257,69.600 222.450 C 69.600 222.643,70.140 222.800,70.800 222.800 L 72.000 222.800 72.000 235.600 C 72.000 243.867,72.142 248.400,72.400 248.400 C 72.620 248.400,72.800 248.837,72.800 249.371 C 72.800 250.448,73.745 251.600,74.629 251.600 C 74.943 251.600,75.200 251.780,75.200 252.000 C 75.200 252.227,76.371 252.403,77.900 252.406 C 81.715 252.415,81.496 251.914,81.661 261.000 C 81.823 269.872,82.090 270.800,84.489 270.800 C 85.100 270.800,85.600 270.980,85.600 271.200 C 85.600 271.428,86.787 271.600,88.361 271.600 L 91.123 271.600 91.261 275.329 C 91.448 280.355,91.656 280.555,96.871 280.737 L 100.800 280.875 100.800 284.864 C 100.800 290.442,100.764 290.400,105.571 290.400 C 110.198 290.400,110.000 290.193,110.000 295.033 C 110.000 297.011,110.165 298.400,110.400 298.400 C 110.620 298.400,110.800 298.649,110.800 298.953 C 110.800 299.736,112.084 299.988,116.100 299.995 L 119.600 300.000 119.600 303.000 C 119.600 304.650,119.758 306.000,119.950 306.000 C 120.142 306.000,120.409 306.544,120.542 307.208 C 120.731 308.153,121.047 308.469,121.992 308.658 C 122.656 308.791,123.200 309.058,123.200 309.250 C 123.200 309.443,125.180 309.600,127.600 309.600 C 131.244 309.600,132.000 309.703,132.000 310.200 C 132.000 310.530,132.160 310.800,132.357 310.800 C 132.553 310.800,132.830 311.265,132.973 311.834 C 133.263 312.989,135.025 314.800,135.858 314.800 C 136.156 314.800,136.400 314.966,136.400 315.168 C 136.400 315.371,136.929 315.653,137.576 315.795 C 138.473 315.992,138.781 316.308,138.876 317.127 C 138.973 317.962,139.244 318.228,140.100 318.327 C 140.705 318.396,141.200 318.621,141.200 318.827 C 141.200 319.046,144.817 319.200,150.000 319.200 L 158.800 319.200 158.800 320.400 C 158.800 321.060,158.958 321.600,159.150 321.600 C 159.343 321.600,159.609 322.145,159.742 322.812 C 159.998 324.092,161.744 326.000,162.658 326.000 C 162.956 326.000,163.200 326.169,163.200 326.375 C 163.200 326.582,164.055 326.877,165.100 327.031 C 166.145 327.185,167.128 327.511,167.285 327.756 C 167.724 328.438,228.073 328.383,228.300 327.700 C 228.392 327.425,228.831 327.200,229.277 327.200 C 230.287 327.200,231.984 325.638,231.993 324.700 C 231.997 324.315,232.180 324.000,232.400 324.000 C 232.622 324.000,232.800 322.933,232.800 321.600 L 232.800 319.200 242.600 319.200 C 247.990 319.200,252.400 319.046,252.400 318.858 C 252.400 318.670,253.703 318.407,255.295 318.273 C 256.887 318.140,258.252 317.844,258.328 317.615 C 258.404 317.387,258.727 317.200,259.046 317.200 C 259.364 317.200,259.741 316.885,259.883 316.500 C 260.025 316.115,260.298 315.694,260.489 315.565 C 260.679 315.436,260.944 314.041,261.076 312.465 L 261.316 309.600 265.458 309.600 C 267.736 309.600,269.600 309.440,269.600 309.243 C 269.600 309.047,270.050 308.774,270.600 308.636 C 271.319 308.455,271.600 308.115,271.600 307.424 C 271.600 306.682,271.873 306.404,272.800 306.200 C 273.460 306.055,274.000 305.771,274.000 305.568 C 274.000 305.366,274.204 305.200,274.454 305.200 C 275.134 305.200,276.759 303.304,277.040 302.183 C 277.176 301.642,277.447 301.200,277.643 301.200 C 277.840 301.200,278.000 300.955,278.000 300.656 C 278.000 300.100,280.649 299.611,283.700 299.603 C 284.525 299.602,285.200 299.443,285.200 299.250 C 285.200 299.058,285.750 298.790,286.423 298.655 C 287.973 298.345,288.745 297.573,289.055 296.023 C 289.190 295.350,289.449 294.800,289.630 294.800 C 289.812 294.800,290.014 293.765,290.080 292.500 L 290.200 290.200 292.500 290.080 C 293.765 290.014,294.800 289.812,294.800 289.630 C 294.800 289.449,295.350 289.190,296.023 289.055 C 297.573 288.745,298.345 287.973,298.655 286.423 C 298.790 285.750,299.037 285.200,299.203 285.200 C 299.370 285.200,299.581 284.037,299.671 282.615 C 299.864 279.583,299.855 279.597,301.967 279.314 C 302.865 279.193,303.600 278.938,303.600 278.747 C 303.600 278.556,303.807 278.400,304.060 278.400 C 304.967 278.400,307.252 275.589,307.479 274.193 C 307.603 273.427,307.847 272.800,308.021 272.800 C 308.194 272.800,308.455 272.260,308.600 271.600 C 308.745 270.940,309.029 270.400,309.232 270.400 C 309.434 270.400,309.600 268.510,309.600 266.200 L 309.600 262.000 311.000 262.000 C 311.770 262.000,312.400 261.842,312.400 261.650 C 312.400 261.457,313.371 261.219,314.558 261.120 C 317.344 260.889,318.089 260.144,318.320 257.358 C 318.419 256.171,318.657 255.200,318.850 255.200 C 319.042 255.200,319.203 252.095,319.206 248.300 C 319.213 240.624,319.213 240.623,321.261 240.247 C 322.065 240.099,322.824 239.713,322.949 239.389 C 323.073 239.065,323.451 238.800,323.787 238.800 C 324.124 238.800,324.400 238.530,324.400 238.200 C 324.400 237.870,324.573 237.600,324.784 237.600 C 324.995 237.600,325.394 236.835,325.670 235.900 C 325.945 234.965,326.403 233.962,326.686 233.671 C 326.969 233.381,327.200 232.901,327.200 232.605 C 327.200 232.309,327.425 231.992,327.700 231.900 C 328.092 231.770,328.225 225.720,328.318 203.867 L 328.436 176.000 333.618 176.000 L 338.800 176.000 338.800 257.400 L 338.800 338.800 195.600 338.800 L 52.400 338.800 52.400 257.400 L 52.400 176.000 62.200 176.000 L 72.000 176.000 72.000 177.200 " stroke="none" fill="#ffffff" fill-rule="evenodd"></path><path id="path3" d="M14.800 2.600 L 14.800 5.200 11.200 5.200 C 9.220 5.200,7.600 5.359,7.600 5.553 C 7.600 5.748,7.240 6.001,6.800 6.116 C 6.360 6.231,6.000 6.612,6.000 6.963 C 6.000 7.313,5.820 7.600,5.600 7.600 C 5.363 7.600,5.200 9.067,5.200 11.200 L 5.200 14.800 2.600 14.800 L 0.000 14.800 0.000 198.200 L 0.000 381.600 2.600 381.600 L 5.200 381.600 5.200 383.357 C 5.200 385.211,5.582 385.600,7.401 385.600 C 8.115 385.600,8.399 385.884,8.600 386.800 C 8.745 387.460,9.029 388.000,9.232 388.000 C 9.434 388.000,9.600 388.244,9.600 388.542 C 9.600 389.375,11.411 391.137,12.566 391.427 C 13.135 391.570,13.600 391.847,13.600 392.043 C 13.600 392.240,13.870 392.400,14.200 392.400 C 14.530 392.400,14.800 392.683,14.800 393.029 C 14.800 394.654,15.913 394.995,21.670 395.130 L 27.200 395.260 27.200 397.630 L 27.200 400.000 196.600 400.000 L 366.000 400.000 366.000 397.659 L 366.000 395.318 372.652 395.099 C 376.311 394.978,379.416 394.709,379.552 394.502 C 379.688 394.295,380.379 394.013,381.087 393.875 C 382.774 393.547,384.006 392.272,384.282 390.570 C 384.405 389.816,384.651 389.200,384.830 389.200 C 385.010 389.200,385.211 388.345,385.278 387.300 L 385.400 385.400 387.700 385.280 C 388.965 385.214,390.000 385.012,390.000 384.830 C 390.000 384.649,390.550 384.390,391.223 384.255 C 392.733 383.953,393.476 383.242,393.842 381.748 C 393.997 381.117,394.284 380.494,394.481 380.364 C 394.678 380.235,394.948 376.950,395.082 373.064 L 395.324 366.000 397.662 366.000 L 400.000 366.000 400.000 196.000 L 400.000 26.000 397.633 26.000 L 395.265 26.000 395.133 21.070 C 394.995 15.951,394.609 14.800,393.029 14.800 C 392.683 14.800,392.400 14.530,392.400 14.200 C 392.400 13.870,392.240 13.600,392.043 13.600 C 391.847 13.600,391.570 13.135,391.427 12.566 C 391.137 11.411,389.375 9.600,388.542 9.600 C 388.244 9.600,388.000 9.434,388.000 9.232 C 388.000 9.029,387.460 8.745,386.800 8.600 C 385.801 8.381,385.600 8.141,385.600 7.168 C 385.600 6.396,385.396 6.000,385.000 6.000 C 384.670 6.000,384.400 5.820,384.400 5.600 C 384.400 5.361,382.867 5.200,380.600 5.200 L 376.800 5.200 376.800 2.600 L 376.800 0.000 195.800 0.000 L 14.800 0.000 14.800 2.600 M338.167 52.643 C 338.736 52.861,338.800 55.771,338.800 81.443 L 338.800 110.000 309.800 110.000 L 280.800 110.000 280.800 81.200 L 280.800 52.400 309.167 52.400 C 324.769 52.400,337.819 52.509,338.167 52.643 M216.000 129.600 C 216.000 130.260,216.156 130.800,216.348 130.800 C 216.539 130.800,216.797 131.428,216.922 132.195 C 217.152 133.616,218.863 135.600,219.858 135.600 C 220.156 135.600,220.400 135.769,220.400 135.975 C 220.400 136.182,221.255 136.477,222.300 136.631 C 223.345 136.785,224.328 137.111,224.485 137.356 C 224.657 137.624,226.558 137.855,229.285 137.938 C 234.421 138.095,234.385 138.071,234.394 141.300 C 234.397 142.565,234.566 143.600,234.768 143.600 C 234.971 143.600,235.252 144.128,235.394 144.774 C 235.588 145.656,235.944 146.012,236.826 146.206 C 237.472 146.348,238.000 146.629,238.000 146.832 C 238.000 147.034,238.945 147.202,240.100 147.205 C 243.320 147.214,244.000 147.500,244.000 148.847 C 244.000 149.481,244.156 150.000,244.347 150.000 C 244.538 150.000,244.790 150.712,244.907 151.582 C 245.123 153.192,246.761 155.200,247.858 155.200 C 248.156 155.200,248.400 155.359,248.400 155.554 C 248.400 155.749,249.390 156.032,250.600 156.183 L 252.800 156.458 252.800 158.829 C 252.800 160.143,252.978 161.200,253.200 161.200 C 253.420 161.200,253.600 161.850,253.600 162.644 C 253.600 164.641,254.923 165.984,256.900 165.993 C 257.725 165.997,258.400 166.180,258.400 166.400 C 258.400 166.620,259.300 166.800,260.400 166.800 L 262.400 166.800 262.400 177.400 C 262.400 184.200,262.543 188.000,262.800 188.000 C 263.053 188.000,263.200 190.933,263.200 196.000 C 263.200 201.067,263.053 204.000,262.800 204.000 C 262.544 204.000,262.400 207.649,262.400 214.146 L 262.400 224.291 260.544 224.546 C 259.523 224.686,258.173 224.800,257.544 224.800 C 256.915 224.800,256.400 224.980,256.400 225.200 C 256.400 225.420,256.170 225.600,255.889 225.600 C 254.860 225.600,253.851 227.375,253.676 229.492 C 253.580 230.651,253.343 231.600,253.150 231.600 C 252.958 231.600,252.800 232.408,252.800 233.395 C 252.800 235.180,252.791 235.192,251.200 235.446 C 250.320 235.587,249.600 235.859,249.600 236.051 C 249.600 236.243,249.344 236.400,249.031 236.400 C 248.292 236.400,246.000 238.692,246.000 239.431 C 246.000 239.744,245.844 240.000,245.653 240.000 C 245.462 240.000,245.207 240.735,245.086 241.633 C 244.817 243.637,244.837 243.617,242.833 243.886 C 241.935 244.007,241.200 244.238,241.200 244.400 C 241.200 244.562,240.484 244.791,239.608 244.908 C 237.593 245.178,235.641 247.040,235.324 248.993 C 235.198 249.767,234.939 250.400,234.748 250.400 C 234.556 250.400,234.400 250.940,234.400 251.600 L 234.400 252.800 230.600 252.800 C 228.333 252.800,226.800 252.961,226.800 253.200 C 226.800 253.420,226.570 253.600,226.289 253.600 C 225.518 253.600,224.400 255.090,224.400 256.116 C 224.400 256.946,223.200 258.390,222.495 258.407 C 222.148 258.415,220.400 260.204,220.400 260.552 C 220.400 262.400,220.406 262.400,197.358 262.400 L 175.693 262.400 175.415 259.800 C 175.262 258.370,174.990 257.200,174.812 257.200 C 174.633 257.200,174.377 256.762,174.242 256.227 C 174.108 255.691,173.594 255.127,173.099 254.973 C 172.605 254.818,172.102 254.541,171.983 254.357 C 171.863 254.172,170.468 253.900,168.883 253.753 C 167.297 253.606,166.000 253.331,166.000 253.143 C 166.000 252.954,164.020 252.800,161.600 252.800 L 157.200 252.800 157.200 250.200 C 157.200 248.733,157.026 247.600,156.800 247.600 C 156.580 247.600,156.400 247.100,156.400 246.489 C 156.400 244.630,155.171 243.972,151.218 243.716 L 147.711 243.489 147.468 240.049 C 147.335 238.157,147.040 236.547,146.813 236.471 C 146.586 236.395,146.400 236.078,146.400 235.767 C 146.400 235.455,146.145 235.200,145.833 235.200 C 145.522 235.200,145.205 235.014,145.129 234.787 C 145.053 234.560,143.433 234.265,141.529 234.130 L 138.066 233.886 137.933 229.328 C 137.839 226.091,137.646 224.675,137.270 224.442 C 136.978 224.262,136.639 223.369,136.517 222.458 C 136.395 221.546,136.138 220.800,135.947 220.800 C 135.756 220.800,135.600 220.593,135.600 220.340 C 135.600 219.326,132.757 217.118,131.178 216.906 C 130.310 216.790,129.600 216.538,129.600 216.347 C 129.600 216.156,129.330 216.000,129.000 216.000 C 128.475 216.000,128.400 213.489,128.400 195.800 C 128.400 178.111,128.475 175.600,129.000 175.600 C 129.330 175.600,129.600 175.420,129.600 175.200 C 129.600 174.980,130.164 174.800,130.854 174.800 C 132.960 174.800,135.160 173.956,135.446 173.039 C 135.590 172.578,135.877 172.091,136.084 171.958 C 136.291 171.824,136.564 170.924,136.690 169.958 C 136.817 168.991,137.111 168.076,137.344 167.924 C 137.593 167.762,137.836 165.487,137.932 162.424 L 138.095 157.200 141.047 157.200 C 142.749 157.200,144.000 157.031,144.000 156.800 C 144.000 156.580,144.410 156.400,144.911 156.400 C 146.619 156.400,147.347 154.939,147.528 151.147 L 147.693 147.693 151.147 147.528 C 154.939 147.347,156.400 146.619,156.400 144.911 C 156.400 144.410,156.580 144.000,156.800 144.000 C 157.030 144.000,157.200 142.752,157.200 141.056 L 157.200 138.112 164.882 137.911 C 170.101 137.774,172.612 137.564,172.715 137.255 C 172.798 137.005,173.082 136.800,173.344 136.800 C 174.692 136.800,175.909 133.254,175.987 129.100 C 175.999 128.443,177.224 128.400,196.000 128.400 L 216.000 128.400 216.000 129.600 M72.000 177.200 C 72.000 178.267,71.867 178.400,70.800 178.400 C 70.140 178.400,69.600 178.560,69.600 178.757 C 69.600 178.953,69.135 179.230,68.566 179.373 C 67.432 179.657,65.600 181.419,65.600 182.225 C 65.600 182.505,65.416 182.795,65.191 182.870 C 64.965 182.945,64.668 183.725,64.529 184.603 C 64.390 185.481,64.085 186.325,63.851 186.477 C 63.590 186.648,63.364 189.316,63.266 193.377 C 63.178 197.020,62.947 200.000,62.753 200.000 C 62.559 200.000,62.400 201.350,62.400 203.000 C 62.400 204.650,62.553 206.000,62.740 206.000 C 62.926 206.000,63.184 208.367,63.313 211.260 C 63.442 214.153,63.711 216.628,63.912 216.760 C 64.113 216.892,64.404 217.518,64.559 218.151 C 64.935 219.686,66.856 221.551,68.374 221.855 C 69.048 221.990,69.600 222.257,69.600 222.450 C 69.600 222.643,70.140 222.800,70.800 222.800 L 72.000 222.800 72.000 235.600 C 72.000 243.867,72.142 248.400,72.400 248.400 C 72.620 248.400,72.800 248.837,72.800 249.371 C 72.800 250.448,73.745 251.600,74.629 251.600 C 74.943 251.600,75.200 251.780,75.200 252.000 C 75.200 252.227,76.371 252.403,77.900 252.406 C 81.715 252.415,81.496 251.914,81.661 261.000 C 81.823 269.872,82.090 270.800,84.489 270.800 C 85.100 270.800,85.600 270.980,85.600 271.200 C 85.600 271.428,86.787 271.600,88.361 271.600 L 91.123 271.600 91.261 275.329 C 91.448 280.355,91.656 280.555,96.871 280.737 L 100.800 280.875 100.800 284.864 C 100.800 290.442,100.764 290.400,105.571 290.400 C 110.198 290.400,110.000 290.193,110.000 295.033 C 110.000 297.011,110.165 298.400,110.400 298.400 C 110.620 298.400,110.800 298.649,110.800 298.953 C 110.800 299.736,112.084 299.988,116.100 299.995 L 119.600 300.000 119.600 303.000 C 119.600 304.650,119.758 306.000,119.950 306.000 C 120.142 306.000,120.409 306.544,120.542 307.208 C 120.731 308.153,121.047 308.469,121.992 308.658 C 122.656 308.791,123.200 309.058,123.200 309.250 C 123.200 309.443,125.180 309.600,127.600 309.600 C 131.244 309.600,132.000 309.703,132.000 310.200 C 132.000 310.530,132.160 310.800,132.357 310.800 C 132.553 310.800,132.830 311.265,132.973 311.834 C 133.263 312.989,135.025 314.800,135.858 314.800 C 136.156 314.800,136.400 314.966,136.400 315.168 C 136.400 315.371,136.929 315.653,137.576 315.795 C 138.473 315.992,138.781 316.308,138.876 317.127 C 138.973 317.962,139.244 318.228,140.100 318.327 C 140.705 318.396,141.200 318.621,141.200 318.827 C 141.200 319.046,144.817 319.200,150.000 319.200 L 158.800 319.200 158.800 320.400 C 158.800 321.060,158.958 321.600,159.150 321.600 C 159.343 321.600,159.609 322.145,159.742 322.812 C 159.998 324.092,161.744 326.000,162.658 326.000 C 162.956 326.000,163.200 326.169,163.200 326.375 C 163.200 326.582,164.055 326.877,165.100 327.031 C 166.145 327.185,167.128 327.511,167.285 327.756 C 167.724 328.438,228.073 328.383,228.300 327.700 C 228.392 327.425,228.831 327.200,229.277 327.200 C 230.287 327.200,231.984 325.638,231.993 324.700 C 231.997 324.315,232.180 324.000,232.400 324.000 C 232.622 324.000,232.800 322.933,232.800 321.600 L 232.800 319.200 242.600 319.200 C 247.990 319.200,252.400 319.046,252.400 318.858 C 252.400 318.670,253.703 318.407,255.295 318.273 C 256.887 318.140,258.252 317.844,258.328 317.615 C 258.404 317.387,258.727 317.200,259.046 317.200 C 259.364 317.200,259.741 316.885,259.883 316.500 C 260.025 316.115,260.298 315.694,260.489 315.565 C 260.679 315.436,260.944 314.041,261.076 312.465 L 261.316 309.600 265.458 309.600 C 267.736 309.600,269.600 309.440,269.600 309.243 C 269.600 309.047,270.050 308.774,270.600 308.636 C 271.319 308.455,271.600 308.115,271.600 307.424 C 271.600 306.682,271.873 306.404,272.800 306.200 C 273.460 306.055,274.000 305.771,274.000 305.568 C 274.000 305.366,274.204 305.200,274.454 305.200 C 275.134 305.200,276.759 303.304,277.040 302.183 C 277.176 301.642,277.447 301.200,277.643 301.200 C 277.840 301.200,278.000 300.955,278.000 300.656 C 278.000 300.100,280.649 299.611,283.700 299.603 C 284.525 299.602,285.200 299.443,285.200 299.250 C 285.200 299.058,285.750 298.790,286.423 298.655 C 287.973 298.345,288.745 297.573,289.055 296.023 C 289.190 295.350,289.449 294.800,289.630 294.800 C 289.812 294.800,290.014 293.765,290.080 292.500 L 290.200 290.200 292.500 290.080 C 293.765 290.014,294.800 289.812,294.800 289.630 C 294.800 289.449,295.350 289.190,296.023 289.055 C 297.573 288.745,298.345 287.973,298.655 286.423 C 298.790 285.750,299.037 285.200,299.203 285.200 C 299.370 285.200,299.581 284.037,299.671 282.615 C 299.864 279.583,299.855 279.597,301.967 279.314 C 302.865 279.193,303.600 278.938,303.600 278.747 C 303.600 278.556,303.807 278.400,304.060 278.400 C 304.967 278.400,307.252 275.589,307.479 274.193 C 307.603 273.427,307.847 272.800,308.021 272.800 C 308.194 272.800,308.455 272.260,308.600 271.600 C 308.745 270.940,309.029 270.400,309.232 270.400 C 309.434 270.400,309.600 268.510,309.600 266.200 L 309.600 262.000 311.000 262.000 C 311.770 262.000,312.400 261.842,312.400 261.650 C 312.400 261.457,313.371 261.219,314.558 261.120 C 317.344 260.889,318.089 260.144,318.320 257.358 C 318.419 256.171,318.657 255.200,318.850 255.200 C 319.042 255.200,319.203 252.095,319.206 248.300 C 319.213 240.624,319.213 240.623,321.261 240.247 C 322.065 240.099,322.824 239.713,322.949 239.389 C 323.073 239.065,323.451 238.800,323.787 238.800 C 324.124 238.800,324.400 238.530,324.400 238.200 C 324.400 237.870,324.573 237.600,324.784 237.600 C 324.995 237.600,325.394 236.835,325.670 235.900 C 325.945 234.965,326.403 233.962,326.686 233.671 C 326.969 233.381,327.200 232.901,327.200 232.605 C 327.200 232.309,327.425 231.992,327.700 231.900 C 328.092 231.770,328.225 225.720,328.318 203.867 L 328.436 176.000 333.618 176.000 L 338.800 176.000 338.800 257.400 L 338.800 338.800 195.600 338.800 L 52.400 338.800 52.400 257.400 L 52.400 176.000 62.200 176.000 L 72.000 176.000 72.000 177.200 " stroke="none" fill="#ffffff" fill-rule="evenodd"></path><path id="path4" d="M14.800 2.600 L 14.800 5.200 11.200 5.200 C 9.220 5.200,7.600 5.359,7.600 5.553 C 7.600 5.748,7.240 6.001,6.800 6.116 C 6.360 6.231,6.000 6.612,6.000 6.963 C 6.000 7.313,5.820 7.600,5.600 7.600 C 5.363 7.600,5.200 9.067,5.200 11.200 L 5.200 14.800 2.600 14.800 L 0.000 14.800 0.000 198.200 L 0.000 381.600 2.600 381.600 L 5.200 381.600 5.200 383.357 C 5.200 385.211,5.582 385.600,7.401 385.600 C 8.115 385.600,8.399 385.884,8.600 386.800 C 8.745 387.460,9.029 388.000,9.232 388.000 C 9.434 388.000,9.600 388.244,9.600 388.542 C 9.600 389.375,11.411 391.137,12.566 391.427 C 13.135 391.570,13.600 391.847,13.600 392.043 C 13.600 392.240,13.870 392.400,14.200 392.400 C 14.530 392.400,14.800 392.683,14.800 393.029 C 14.800 394.654,15.913 394.995,21.670 395.130 L 27.200 395.260 27.200 397.630 L 27.200 400.000 196.600 400.000 L 366.000 400.000 366.000 397.659 L 366.000 395.318 372.652 395.099 C 376.311 394.978,379.416 394.709,379.552 394.502 C 379.688 394.295,380.379 394.013,381.087 393.875 C 382.774 393.547,384.006 392.272,384.282 390.570 C 384.405 389.816,384.651 389.200,384.830 389.200 C 385.010 389.200,385.211 388.345,385.278 387.300 L 385.400 385.400 387.700 385.280 C 388.965 385.214,390.000 385.012,390.000 384.830 C 390.000 384.649,390.550 384.390,391.223 384.255 C 392.733 383.953,393.476 383.242,393.842 381.748 C 393.997 381.117,394.284 380.494,394.481 380.364 C 394.678 380.235,394.948 376.950,395.082 373.064 L 395.324 366.000 397.662 366.000 L 400.000 366.000 400.000 196.000 L 400.000 26.000 397.633 26.000 L 395.265 26.000 395.133 21.070 C 394.995 15.951,394.609 14.800,393.029 14.800 C 392.683 14.800,392.400 14.530,392.400 14.200 C 392.400 13.870,392.240 13.600,392.043 13.600 C 391.847 13.600,391.570 13.135,391.427 12.566 C 391.137 11.411,389.375 9.600,388.542 9.600 C 388.244 9.600,388.000 9.434,388.000 9.232 C 388.000 9.029,387.460 8.745,386.800 8.600 C 385.801 8.381,385.600 8.141,385.600 7.168 C 385.600 6.396,385.396 6.000,385.000 6.000 C 384.670 6.000,384.400 5.820,384.400 5.600 C 384.400 5.361,382.867 5.200,380.600 5.200 L 376.800 5.200 376.800 2.600 L 376.800 0.000 195.800 0.000 L 14.800 0.000 14.800 2.600 M338.167 52.643 C 338.736 52.861,338.800 55.771,338.800 81.443 L 338.800 110.000 309.800 110.000 L 280.800 110.000 280.800 81.200 L 280.800 52.400 309.167 52.400 C 324.769 52.400,337.819 52.509,338.167 52.643 M216.000 129.600 C 216.000 130.260,216.156 130.800,216.348 130.800 C 216.539 130.800,216.797 131.428,216.922 132.195 C 217.152 133.616,218.863 135.600,219.858 135.600 C 220.156 135.600,220.400 135.769,220.400 135.975 C 220.400 136.182,221.255 136.477,222.300 136.631 C 223.345 136.785,224.328 137.111,224.485 137.356 C 224.657 137.624,226.558 137.855,229.285 137.938 C 234.421 138.095,234.385 138.071,234.394 141.300 C 234.397 142.565,234.566 143.600,234.768 143.600 C 234.971 143.600,235.252 144.128,235.394 144.774 C 235.588 145.656,235.944 146.012,236.826 146.206 C 237.472 146.348,238.000 146.629,238.000 146.832 C 238.000 147.034,238.945 147.202,240.100 147.205 C 243.320 147.214,244.000 147.500,244.000 148.847 C 244.000 149.481,244.156 150.000,244.347 150.000 C 244.538 150.000,244.790 150.712,244.907 151.582 C 245.123 153.192,246.761 155.200,247.858 155.200 C 248.156 155.200,248.400 155.359,248.400 155.554 C 248.400 155.749,249.390 156.032,250.600 156.183 L 252.800 156.458 252.800 158.829 C 252.800 160.143,252.978 161.200,253.200 161.200 C 253.420 161.200,253.600 161.850,253.600 162.644 C 253.600 164.641,254.923 165.984,256.900 165.993 C 257.725 165.997,258.400 166.180,258.400 166.400 C 258.400 166.620,259.300 166.800,260.400 166.800 L 262.400 166.800 262.400 177.400 C 262.400 184.200,262.543 188.000,262.800 188.000 C 263.053 188.000,263.200 190.933,263.200 196.000 C 263.200 201.067,263.053 204.000,262.800 204.000 C 262.544 204.000,262.400 207.649,262.400 214.146 L 262.400 224.291 260.544 224.546 C 259.523 224.686,258.173 224.800,257.544 224.800 C 256.915 224.800,256.400 224.980,256.400 225.200 C 256.400 225.420,256.170 225.600,255.889 225.600 C 254.860 225.600,253.851 227.375,253.676 229.492 C 253.580 230.651,253.343 231.600,253.150 231.600 C 252.958 231.600,252.800 232.408,252.800 233.395 C 252.800 235.180,252.791 235.192,251.200 235.446 C 250.320 235.587,249.600 235.859,249.600 236.051 C 249.600 236.243,249.344 236.400,249.031 236.400 C 248.292 236.400,246.000 238.692,246.000 239.431 C 246.000 239.744,245.844 240.000,245.653 240.000 C 245.462 240.000,245.207 240.735,245.086 241.633 C 244.817 243.637,244.837 243.617,242.833 243.886 C 241.935 244.007,241.200 244.238,241.200 244.400 C 241.200 244.562,240.484 244.791,239.608 244.908 C 237.593 245.178,235.641 247.040,235.324 248.993 C 235.198 249.767,234.939 250.400,234.748 250.400 C 234.556 250.400,234.400 250.940,234.400 251.600 L 234.400 252.800 230.600 252.800 C 228.333 252.800,226.800 252.961,226.800 253.200 C 226.800 253.420,226.570 253.600,226.289 253.600 C 225.518 253.600,224.400 255.090,224.400 256.116 C 224.400 256.946,223.200 258.390,222.495 258.407 C 222.148 258.415,220.400 260.204,220.400 260.552 C 220.400 262.400,220.406 262.400,197.358 262.400 L 175.693 262.400 175.415 259.800 C 175.262 258.370,174.990 257.200,174.812 257.200 C 174.633 257.200,174.377 256.762,174.242 256.227 C 174.108 255.691,173.594 255.127,173.099 254.973 C 172.605 254.818,172.102 254.541,171.983 254.357 C 171.863 254.172,170.468 253.900,168.883 253.753 C 167.297 253.606,166.000 253.331,166.000 253.143 C 166.000 252.954,164.020 252.800,161.600 252.800 L 157.200 252.800 157.200 250.200 C 157.200 248.733,157.026 247.600,156.800 247.600 C 156.580 247.600,156.400 247.100,156.400 246.489 C 156.400 244.630,155.171 243.972,151.218 243.716 L 147.711 243.489 147.468 240.049 C 147.335 238.157,147.040 236.547,146.813 236.471 C 146.586 236.395,146.400 236.078,146.400 235.767 C 146.400 235.455,146.145 235.200,145.833 235.200 C 145.522 235.200,145.205 235.014,145.129 234.787 C 145.053 234.560,143.433 234.265,141.529 234.130 L 138.066 233.886 137.933 229.328 C 137.839 226.091,137.646 224.675,137.270 224.442 C 136.978 224.262,136.639 223.369,136.517 222.458 C 136.395 221.546,136.138 220.800,135.947 220.800 C 135.756 220.800,135.600 220.593,135.600 220.340 C 135.600 219.326,132.757 217.118,131.178 216.906 C 130.310 216.790,129.600 216.538,129.600 216.347 C 129.600 216.156,129.330 216.000,129.000 216.000 C 128.475 216.000,128.400 213.489,128.400 195.800 C 128.400 178.111,128.475 175.600,129.000 175.600 C 129.330 175.600,129.600 175.420,129.600 175.200 C 129.600 174.980,130.164 174.800,130.854 174.800 C 132.960 174.800,135.160 173.956,135.446 173.039 C 135.590 172.578,135.877 172.091,136.084 171.958 C 136.291 171.824,136.564 170.924,136.690 169.958 C 136.817 168.991,137.111 168.076,137.344 167.924 C 137.593 167.762,137.836 165.487,137.932 162.424 L 138.095 157.200 141.047 157.200 C 142.749 157.200,144.000 157.031,144.000 156.800 C 144.000 156.580,144.410 156.400,144.911 156.400 C 146.619 156.400,147.347 154.939,147.528 151.147 L 147.693 147.693 151.147 147.528 C 154.939 147.347,156.400 146.619,156.400 144.911 C 156.400 144.410,156.580 144.000,156.800 144.000 C 157.030 144.000,157.200 142.752,157.200 141.056 L 157.200 138.112 164.882 137.911 C 170.101 137.774,172.612 137.564,172.715 137.255 C 172.798 137.005,173.082 136.800,173.344 136.800 C 174.692 136.800,175.909 133.254,175.987 129.100 C 175.999 128.443,177.224 128.400,196.000 128.400 L 216.000 128.400 216.000 129.600 M72.000 177.200 C 72.000 178.267,71.867 178.400,70.800 178.400 C 70.140 178.400,69.600 178.560,69.600 178.757 C 69.600 178.953,69.135 179.230,68.566 179.373 C 67.432 179.657,65.600 181.419,65.600 182.225 C 65.600 182.505,65.416 182.795,65.191 182.870 C 64.965 182.945,64.668 183.725,64.529 184.603 C 64.390 185.481,64.085 186.325,63.851 186.477 C 63.590 186.648,63.364 189.316,63.266 193.377 C 63.178 197.020,62.947 200.000,62.753 200.000 C 62.559 200.000,62.400 201.350,62.400 203.000 C 62.400 204.650,62.553 206.000,62.740 206.000 C 62.926 206.000,63.184 208.367,63.313 211.260 C 63.442 214.153,63.711 216.628,63.912 216.760 C 64.113 216.892,64.404 217.518,64.559 218.151 C 64.935 219.686,66.856 221.551,68.374 221.855 C 69.048 221.990,69.600 222.257,69.600 222.450 C 69.600 222.643,70.140 222.800,70.800 222.800 L 72.000 222.800 72.000 235.600 C 72.000 243.867,72.142 248.400,72.400 248.400 C 72.620 248.400,72.800 248.837,72.800 249.371 C 72.800 250.448,73.745 251.600,74.629 251.600 C 74.943 251.600,75.200 251.780,75.200 252.000 C 75.200 252.227,76.371 252.403,77.900 252.406 C 81.715 252.415,81.496 251.914,81.661 261.000 C 81.823 269.872,82.090 270.800,84.489 270.800 C 85.100 270.800,85.600 270.980,85.600 271.200 C 85.600 271.428,86.787 271.600,88.361 271.600 L 91.123 271.600 91.261 275.329 C 91.448 280.355,91.656 280.555,96.871 280.737 L 100.800 280.875 100.800 284.864 C 100.800 290.442,100.764 290.400,105.571 290.400 C 110.198 290.400,110.000 290.193,110.000 295.033 C 110.000 297.011,110.165 298.400,110.400 298.400 C 110.620 298.400,110.800 298.649,110.800 298.953 C 110.800 299.736,112.084 299.988,116.100 299.995 L 119.600 300.000 119.600 303.000 C 119.600 304.650,119.758 306.000,119.950 306.000 C 120.142 306.000,120.409 306.544,120.542 307.208 C 120.731 308.153,121.047 308.469,121.992 308.658 C 122.656 308.791,123.200 309.058,123.200 309.250 C 123.200 309.443,125.180 309.600,127.600 309.600 C 131.244 309.600,132.000 309.703,132.000 310.200 C 132.000 310.530,132.160 310.800,132.357 310.800 C 132.553 310.800,132.830 311.265,132.973 311.834 C 133.263 312.989,135.025 314.800,135.858 314.800 C 136.156 314.800,136.400 314.966,136.400 315.168 C 136.400 315.371,136.929 315.653,137.576 315.795 C 138.473 315.992,138.781 316.308,138.876 317.127 C 138.973 317.962,139.244 318.228,140.100 318.327 C 140.705 318.396,141.200 318.621,141.200 318.827 C 141.200 319.046,144.817 319.200,150.000 319.200 L 158.800 319.200 158.800 320.400 C 158.800 321.060,158.958 321.600,159.150 321.600 C 159.343 321.600,159.609 322.145,159.742 322.812 C 159.998 324.092,161.744 326.000,162.658 326.000 C 162.956 326.000,163.200 326.169,163.200 326.375 C 163.200 326.582,164.055 326.877,165.100 327.031 C 166.145 327.185,167.128 327.511,167.285 327.756 C 167.724 328.438,228.073 328.383,228.300 327.700 C 228.392 327.425,228.831 327.200,229.277 327.200 C 230.287 327.200,231.984 325.638,231.993 324.700 C 231.997 324.315,232.180 324.000,232.400 324.000 C 232.622 324.000,232.800 322.933,232.800 321.600 L 232.800 319.200 242.600 319.200 C 247.990 319.200,252.400 319.046,252.400 318.858 C 252.400 318.670,253.703 318.407,255.295 318.273 C 256.887 318.140,258.252 317.844,258.328 317.615 C 258.404 317.387,258.727 317.200,259.046 317.200 C 259.364 317.200,259.741 316.885,259.883 316.500 C 260.025 316.115,260.298 315.694,260.489 315.565 C 260.679 315.436,260.944 314.041,261.076 312.465 L 261.316 309.600 265.458 309.600 C 267.736 309.600,269.600 309.440,269.600 309.243 C 269.600 309.047,270.050 308.774,270.600 308.636 C 271.319 308.455,271.600 308.115,271.600 307.424 C 271.600 306.682,271.873 306.404,272.800 306.200 C 273.460 306.055,274.000 305.771,274.000 305.568 C 274.000 305.366,274.204 305.200,274.454 305.200 C 275.134 305.200,276.759 303.304,277.040 302.183 C 277.176 301.642,277.447 301.200,277.643 301.200 C 277.840 301.200,278.000 300.955,278.000 300.656 C 278.000 300.100,280.649 299.611,283.700 299.603 C 284.525 299.602,285.200 299.443,285.200 299.250 C 285.200 299.058,285.750 298.790,286.423 298.655 C 287.973 298.345,288.745 297.573,289.055 296.023 C 289.190 295.350,289.449 294.800,289.630 294.800 C 289.812 294.800,290.014 293.765,290.080 292.500 L 290.200 290.200 292.500 290.080 C 293.765 290.014,294.800 289.812,294.800 289.630 C 294.800 289.449,295.350 289.190,296.023 289.055 C 297.573 288.745,298.345 287.973,298.655 286.423 C 298.790 285.750,299.037 285.200,299.203 285.200 C 299.370 285.200,299.581 284.037,299.671 282.615 C 299.864 279.583,299.855 279.597,301.967 279.314 C 302.865 279.193,303.600 278.938,303.600 278.747 C 303.600 278.556,303.807 278.400,304.060 278.400 C 304.967 278.400,307.252 275.589,307.479 274.193 C 307.603 273.427,307.847 272.800,308.021 272.800 C 308.194 272.800,308.455 272.260,308.600 271.600 C 308.745 270.940,309.029 270.400,309.232 270.400 C 309.434 270.400,309.600 268.510,309.600 266.200 L 309.600 262.000 311.000 262.000 C 311.770 262.000,312.400 261.842,312.400 261.650 C 312.400 261.457,313.371 261.219,314.558 261.120 C 317.344 260.889,318.089 260.144,318.320 257.358 C 318.419 256.171,318.657 255.200,318.850 255.200 C 319.042 255.200,319.203 252.095,319.206 248.300 C 319.213 240.624,319.213 240.623,321.261 240.247 C 322.065 240.099,322.824 239.713,322.949 239.389 C 323.073 239.065,323.451 238.800,323.787 238.800 C 324.124 238.800,324.400 238.530,324.400 238.200 C 324.400 237.870,324.573 237.600,324.784 237.600 C 324.995 237.600,325.394 236.835,325.670 235.900 C 325.945 234.965,326.403 233.962,326.686 233.671 C 326.969 233.381,327.200 232.901,327.200 232.605 C 327.200 232.309,327.425 231.992,327.700 231.900 C 328.092 231.770,328.225 225.720,328.318 203.867 L 328.436 176.000 333.618 176.000 L 338.800 176.000 338.800 257.400 L 338.800 338.800 195.600 338.800 L 52.400 338.800 52.400 257.400 L 52.400 176.000 62.200 176.000 L 72.000 176.000 72.000 177.200 " stroke="none" fill="#ffffff" fill-rule="evenodd"></path></g></svg>