<svg id="svg" version="1.1" width="400" height="800" xmlns="http://www.w3.org/2000/svg" xmlns:xlink="http://www.w3.org/1999/xlink" style="display: block;"><g id="svgg"><path id="path0" d="M200.000 4.600 L 200.000 9.200 190.600 9.200 C 182.511 9.200,181.200 9.284,181.200 9.800 C 181.200 10.233,180.756 10.400,179.600 10.400 C 178.444 10.400,178.000 10.567,178.000 11.000 C 178.000 11.330,177.820 11.600,177.600 11.600 C 177.380 11.600,177.200 12.230,177.200 13.000 C 177.200 13.978,177.019 14.400,176.600 14.400 C 176.094 14.400,176.000 15.311,176.000 20.200 L 176.000 26.000 169.200 26.000 C 163.422 26.000,162.400 26.090,162.400 26.600 C 162.400 26.973,162.022 27.200,161.400 27.200 C 160.850 27.200,160.400 27.380,160.400 27.600 C 160.400 27.820,160.130 28.000,159.800 28.000 C 159.328 28.000,159.200 28.556,159.200 30.600 C 159.200 32.067,159.026 33.200,158.800 33.200 C 158.580 33.200,158.400 33.470,158.400 33.800 C 158.400 34.130,158.130 34.400,157.800 34.400 C 157.470 34.400,157.200 34.670,157.200 35.000 C 157.200 35.373,156.822 35.600,156.200 35.600 C 155.650 35.600,155.200 35.780,155.200 36.000 C 155.200 36.220,154.930 36.400,154.600 36.400 C 154.270 36.400,154.000 36.593,154.000 36.829 C 154.000 37.382,152.982 38.400,152.429 38.400 C 152.193 38.400,152.000 38.863,152.000 39.429 C 152.000 40.483,151.192 41.600,150.429 41.600 C 150.193 41.600,150.000 41.870,150.000 42.200 C 150.000 42.672,149.444 42.800,147.400 42.800 C 145.933 42.800,144.800 42.974,144.800 43.200 C 144.800 43.420,144.530 43.600,144.200 43.600 C 143.800 43.600,143.600 44.000,143.600 44.800 C 143.600 45.460,143.420 46.000,143.200 46.000 C 142.949 46.000,142.800 48.467,142.800 52.600 L 142.800 59.200 137.600 59.200 C 133.244 59.200,132.400 59.297,132.400 59.800 C 132.400 60.233,131.956 60.400,130.800 60.400 C 129.644 60.400,129.200 60.567,129.200 61.000 C 129.200 61.330,129.007 61.600,128.771 61.600 C 127.917 61.600,127.200 62.774,127.200 64.171 C 127.200 65.175,127.021 65.600,126.600 65.600 C 126.078 65.600,126.000 67.378,126.000 79.200 L 126.000 92.800 122.400 92.800 C 120.267 92.800,118.800 92.963,118.800 93.200 C 118.800 93.426,117.667 93.600,116.200 93.600 C 114.156 93.600,113.600 93.728,113.600 94.200 C 113.600 94.530,113.330 94.800,113.000 94.800 C 112.670 94.800,112.400 94.993,112.400 95.229 C 112.400 95.782,111.382 96.800,110.829 96.800 C 110.568 96.800,110.400 97.818,110.400 99.400 C 110.400 101.444,110.272 102.000,109.800 102.000 C 109.269 102.000,109.200 111.067,109.200 181.200 L 109.200 260.400 54.600 260.400 L 0.000 260.400 0.000 351.000 L 0.000 441.600 54.600 441.600 L 109.200 441.600 109.200 611.000 C 109.200 761.311,109.268 780.400,109.800 780.400 C 110.280 780.400,110.400 781.000,110.400 783.400 C 110.400 785.800,110.520 786.400,111.000 786.400 C 111.373 786.400,111.600 786.778,111.600 787.400 C 111.600 787.950,111.780 788.400,112.000 788.400 C 112.220 788.400,112.400 788.670,112.400 789.000 C 112.400 789.373,112.778 789.600,113.400 789.600 C 114.022 789.600,114.400 789.827,114.400 790.200 C 114.400 790.683,115.022 790.800,117.600 790.800 C 119.467 790.800,120.800 790.967,120.800 791.200 C 120.800 791.465,143.667 791.600,188.600 791.600 C 233.533 791.600,256.400 791.465,256.400 791.200 C 256.400 790.957,258.200 790.800,261.000 790.800 C 264.822 790.800,265.600 790.699,265.600 790.200 C 265.600 789.767,266.044 789.600,267.200 789.600 C 268.356 789.600,268.800 789.433,268.800 789.000 C 268.800 788.627,269.178 788.400,269.800 788.400 C 270.350 788.400,270.800 788.220,270.800 788.000 C 270.800 787.780,271.070 787.600,271.400 787.600 C 271.773 787.600,272.000 787.222,272.000 786.600 C 272.000 786.050,272.180 785.600,272.400 785.600 C 272.620 785.600,272.800 784.880,272.800 784.000 C 272.800 782.844,272.967 782.400,273.400 782.400 C 273.889 782.400,274.000 781.733,274.000 778.800 C 274.000 775.867,274.111 775.200,274.600 775.200 C 275.132 775.200,275.200 756.400,275.200 608.400 L 275.200 441.600 325.600 441.600 C 358.933 441.600,376.000 441.465,376.000 441.200 C 376.000 440.942,380.267 440.800,388.000 440.800 L 400.000 440.800 400.000 350.600 L 400.000 260.400 337.600 260.400 L 275.200 260.400 275.200 216.200 C 275.200 187.000,275.336 172.000,275.600 172.000 C 275.820 172.000,276.000 171.730,276.000 171.400 C 276.000 170.967,276.444 170.800,277.600 170.800 C 278.756 170.800,279.200 170.633,279.200 170.200 C 279.200 169.827,279.578 169.600,280.200 169.600 C 280.750 169.600,281.200 169.420,281.200 169.200 C 281.200 168.980,281.470 168.800,281.800 168.800 C 282.130 168.800,282.400 168.530,282.400 168.200 C 282.400 167.827,282.778 167.600,283.400 167.600 C 284.200 167.600,284.400 167.400,284.400 166.600 C 284.400 165.978,284.627 165.600,285.000 165.600 C 285.330 165.600,285.600 165.330,285.600 165.000 C 285.600 164.670,285.780 164.400,286.000 164.400 C 286.220 164.400,286.400 163.950,286.400 163.400 C 286.400 162.778,286.627 162.400,287.000 162.400 C 287.421 162.400,287.600 161.975,287.600 160.971 C 287.600 159.161,288.361 158.400,290.171 158.400 C 291.175 158.400,291.600 158.221,291.600 157.800 C 291.600 157.470,291.870 157.200,292.200 157.200 C 292.530 157.200,292.800 157.020,292.800 156.800 C 292.800 156.574,293.933 156.400,295.400 156.400 C 297.444 156.400,298.000 156.272,298.000 155.800 C 298.000 155.367,298.444 155.200,299.600 155.200 C 300.480 155.200,301.200 155.007,301.200 154.771 C 301.200 154.218,302.218 153.200,302.771 153.200 C 303.007 153.200,303.200 153.007,303.200 152.771 C 303.200 152.218,304.218 151.200,304.771 151.200 C 305.007 151.200,305.200 150.480,305.200 149.600 C 305.200 148.444,305.367 148.000,305.800 148.000 C 306.272 148.000,306.400 147.444,306.400 145.400 C 306.400 143.933,306.574 142.800,306.800 142.800 C 307.020 142.800,307.200 142.530,307.200 142.200 C 307.200 141.670,312.622 141.600,353.600 141.600 L 400.000 141.600 400.000 70.800 L 400.000 0.000 300.000 0.000 L 200.000 0.000 200.000 4.600 " stroke="none" fill="#ffffff" fill-rule="evenodd"></path><path id="path1" d="M200.000 4.600 L 200.000 9.200 190.600 9.200 C 182.511 9.200,181.200 9.284,181.200 9.800 C 181.200 10.233,180.756 10.400,179.600 10.400 C 178.444 10.400,178.000 10.567,178.000 11.000 C 178.000 11.330,177.820 11.600,177.600 11.600 C 177.380 11.600,177.200 12.230,177.200 13.000 C 177.200 13.978,177.019 14.400,176.600 14.400 C 176.094 14.400,176.000 15.311,176.000 20.200 L 176.000 26.000 169.200 26.000 C 163.422 26.000,162.400 26.090,162.400 26.600 C 162.400 26.973,162.022 27.200,161.400 27.200 C 160.850 27.200,160.400 27.380,160.400 27.600 C 160.400 27.820,160.130 28.000,159.800 28.000 C 159.328 28.000,159.200 28.556,159.200 30.600 C 159.200 32.067,159.026 33.200,158.800 33.200 C 158.580 33.200,158.400 33.470,158.400 33.800 C 158.400 34.130,158.130 34.400,157.800 34.400 C 157.470 34.400,157.200 34.670,157.200 35.000 C 157.200 35.373,156.822 35.600,156.200 35.600 C 155.650 35.600,155.200 35.780,155.200 36.000 C 155.200 36.220,154.930 36.400,154.600 36.400 C 154.270 36.400,154.000 36.593,154.000 36.829 C 154.000 37.382,152.982 38.400,152.429 38.400 C 152.193 38.400,152.000 38.863,152.000 39.429 C 152.000 40.483,151.192 41.600,150.429 41.600 C 150.193 41.600,150.000 41.870,150.000 42.200 C 150.000 42.672,149.444 42.800,147.400 42.800 C 145.933 42.800,144.800 42.974,144.800 43.200 C 144.800 43.420,144.530 43.600,144.200 43.600 C 143.800 43.600,143.600 44.000,143.600 44.800 C 143.600 45.460,143.420 46.000,143.200 46.000 C 142.949 46.000,142.800 48.467,142.800 52.600 L 142.800 59.200 137.600 59.200 C 133.244 59.200,132.400 59.297,132.400 59.800 C 132.400 60.233,131.956 60.400,130.800 60.400 C 129.644 60.400,129.200 60.567,129.200 61.000 C 129.200 61.330,129.007 61.600,128.771 61.600 C 127.917 61.600,127.200 62.774,127.200 64.171 C 127.200 65.175,127.021 65.600,126.600 65.600 C 126.078 65.600,126.000 67.378,126.000 79.200 L 126.000 92.800 122.400 92.800 C 120.267 92.800,118.800 92.963,118.800 93.200 C 118.800 93.426,117.667 93.600,116.200 93.600 C 114.156 93.600,113.600 93.728,113.600 94.200 C 113.600 94.530,113.330 94.800,113.000 94.800 C 112.670 94.800,112.400 94.993,112.400 95.229 C 112.400 95.782,111.382 96.800,110.829 96.800 C 110.568 96.800,110.400 97.818,110.400 99.400 C 110.400 101.444,110.272 102.000,109.800 102.000 C 109.269 102.000,109.200 111.067,109.200 181.200 L 109.200 260.400 54.600 260.400 L 0.000 260.400 0.000 351.000 L 0.000 441.600 54.600 441.600 L 109.200 441.600 109.200 611.000 C 109.200 761.311,109.268 780.400,109.800 780.400 C 110.280 780.400,110.400 781.000,110.400 783.400 C 110.400 785.800,110.520 786.400,111.000 786.400 C 111.373 786.400,111.600 786.778,111.600 787.400 C 111.600 787.950,111.780 788.400,112.000 788.400 C 112.220 788.400,112.400 788.670,112.400 789.000 C 112.400 789.373,112.778 789.600,113.400 789.600 C 114.022 789.600,114.400 789.827,114.400 790.200 C 114.400 790.683,115.022 790.800,117.600 790.800 C 119.467 790.800,120.800 790.967,120.800 791.200 C 120.800 791.465,143.667 791.600,188.600 791.600 C 233.533 791.600,256.400 791.465,256.400 791.200 C 256.400 790.957,258.200 790.800,261.000 790.800 C 264.822 790.800,265.600 790.699,265.600 790.200 C 265.600 789.767,266.044 789.600,267.200 789.600 C 268.356 789.600,268.800 789.433,268.800 789.000 C 268.800 788.627,269.178 788.400,269.800 788.400 C 270.350 788.400,270.800 788.220,270.800 788.000 C 270.800 787.780,271.070 787.600,271.400 787.600 C 271.773 787.600,272.000 787.222,272.000 786.600 C 272.000 786.050,272.180 785.600,272.400 785.600 C 272.620 785.600,272.800 784.880,272.800 784.000 C 272.800 782.844,272.967 782.400,273.400 782.400 C 273.889 782.400,274.000 781.733,274.000 778.800 C 274.000 775.867,274.111 775.200,274.600 775.200 C 275.132 775.200,275.200 756.400,275.200 608.400 L 275.200 441.600 325.600 441.600 C 358.933 441.600,376.000 441.465,376.000 441.200 C 376.000 440.942,380.267 440.800,388.000 440.800 L 400.000 440.800 400.000 350.600 L 400.000 260.400 337.600 260.400 L 275.200 260.400 275.200 216.200 C 275.200 187.000,275.336 172.000,275.600 172.000 C 275.820 172.000,276.000 171.730,276.000 171.400 C 276.000 170.967,276.444 170.800,277.600 170.800 C 278.756 170.800,279.200 170.633,279.200 170.200 C 279.200 169.827,279.578 169.600,280.200 169.600 C 280.750 169.600,281.200 169.420,281.200 169.200 C 281.200 168.980,281.470 168.800,281.800 168.800 C 282.130 168.800,282.400 168.530,282.400 168.200 C 282.400 167.827,282.778 167.600,283.400 167.600 C 284.200 167.600,284.400 167.400,284.400 166.600 C 284.400 165.978,284.627 165.600,285.000 165.600 C 285.330 165.600,285.600 165.330,285.600 165.000 C 285.600 164.670,285.780 164.400,286.000 164.400 C 286.220 164.400,286.400 163.950,286.400 163.400 C 286.400 162.778,286.627 162.400,287.000 162.400 C 287.421 162.400,287.600 161.975,287.600 160.971 C 287.600 159.161,288.361 158.400,290.171 158.400 C 291.175 158.400,291.600 158.221,291.600 157.800 C 291.600 157.470,291.870 157.200,292.200 157.200 C 292.530 157.200,292.800 157.020,292.800 156.800 C 292.800 156.574,293.933 156.400,295.400 156.400 C 297.444 156.400,298.000 156.272,298.000 155.800 C 298.000 155.367,298.444 155.200,299.600 155.200 C 300.480 155.200,301.200 155.007,301.200 154.771 C 301.200 154.218,302.218 153.200,302.771 153.200 C 303.007 153.200,303.200 153.007,303.200 152.771 C 303.200 152.218,304.218 151.200,304.771 151.200 C 305.007 151.200,305.200 150.480,305.200 149.600 C 305.200 148.444,305.367 148.000,305.800 148.000 C 306.272 148.000,306.400 147.444,306.400 145.400 C 306.400 143.933,306.574 142.800,306.800 142.800 C 307.020 142.800,307.200 142.530,307.200 142.200 C 307.200 141.670,312.622 141.600,353.600 141.600 L 400.000 141.600 400.000 70.800 L 400.000 0.000 300.000 0.000 L 200.000 0.000 200.000 4.600 " stroke="none" fill="#ffffff" fill-rule="evenodd"></path><path id="path2" d="M200.000 4.600 L 200.000 9.200 190.600 9.200 C 182.511 9.200,181.200 9.284,181.200 9.800 C 181.200 10.233,180.756 10.400,179.600 10.400 C 178.444 10.400,178.000 10.567,178.000 11.000 C 178.000 11.330,177.820 11.600,177.600 11.600 C 177.380 11.600,177.200 12.230,177.200 13.000 C 177.200 13.978,177.019 14.400,176.600 14.400 C 176.094 14.400,176.000 15.311,176.000 20.200 L 176.000 26.000 169.200 26.000 C 163.422 26.000,162.400 26.090,162.400 26.600 C 162.400 26.973,162.022 27.200,161.400 27.200 C 160.850 27.200,160.400 27.380,160.400 27.600 C 160.400 27.820,160.130 28.000,159.800 28.000 C 159.328 28.000,159.200 28.556,159.200 30.600 C 159.200 32.067,159.026 33.200,158.800 33.200 C 158.580 33.200,158.400 33.470,158.400 33.800 C 158.400 34.130,158.130 34.400,157.800 34.400 C 157.470 34.400,157.200 34.670,157.200 35.000 C 157.200 35.373,156.822 35.600,156.200 35.600 C 155.650 35.600,155.200 35.780,155.200 36.000 C 155.200 36.220,154.930 36.400,154.600 36.400 C 154.270 36.400,154.000 36.593,154.000 36.829 C 154.000 37.382,152.982 38.400,152.429 38.400 C 152.193 38.400,152.000 38.863,152.000 39.429 C 152.000 40.483,151.192 41.600,150.429 41.600 C 150.193 41.600,150.000 41.870,150.000 42.200 C 150.000 42.672,149.444 42.800,147.400 42.800 C 145.933 42.800,144.800 42.974,144.800 43.200 C 144.800 43.420,144.530 43.600,144.200 43.600 C 143.800 43.600,143.600 44.000,143.600 44.800 C 143.600 45.460,143.420 46.000,143.200 46.000 C 142.949 46.000,142.800 48.467,142.800 52.600 L 142.800 59.200 137.600 59.200 C 133.244 59.200,132.400 59.297,132.400 59.800 C 132.400 60.233,131.956 60.400,130.800 60.400 C 129.644 60.400,129.200 60.567,129.200 61.000 C 129.200 61.330,129.007 61.600,128.771 61.600 C 127.917 61.600,127.200 62.774,127.200 64.171 C 127.200 65.175,127.021 65.600,126.600 65.600 C 126.078 65.600,126.000 67.378,126.000 79.200 L 126.000 92.800 122.400 92.800 C 120.267 92.800,118.800 92.963,118.800 93.200 C 118.800 93.426,117.667 93.600,116.200 93.600 C 114.156 93.600,113.600 93.728,113.600 94.200 C 113.600 94.530,113.330 94.800,113.000 94.800 C 112.670 94.800,112.400 94.993,112.400 95.229 C 112.400 95.782,111.382 96.800,110.829 96.800 C 110.568 96.800,110.400 97.818,110.400 99.400 C 110.400 101.444,110.272 102.000,109.800 102.000 C 109.269 102.000,109.200 111.067,109.200 181.200 L 109.200 260.400 54.600 260.400 L 0.000 260.400 0.000 351.000 L 0.000 441.600 54.600 441.600 L 109.200 441.600 109.200 611.000 C 109.200 761.311,109.268 780.400,109.800 780.400 C 110.280 780.400,110.400 781.000,110.400 783.400 C 110.400 785.800,110.520 786.400,111.000 786.400 C 111.373 786.400,111.600 786.778,111.600 787.400 C 111.600 787.950,111.780 788.400,112.000 788.400 C 112.220 788.400,112.400 788.670,112.400 789.000 C 112.400 789.373,112.778 789.600,113.400 789.600 C 114.022 789.600,114.400 789.827,114.400 790.200 C 114.400 790.683,115.022 790.800,117.600 790.800 C 119.467 790.800,120.800 790.967,120.800 791.200 C 120.800 791.465,143.667 791.600,188.600 791.600 C 233.533 791.600,256.400 791.465,256.400 791.200 C 256.400 790.957,258.200 790.800,261.000 790.800 C 264.822 790.800,265.600 790.699,265.600 790.200 C 265.600 789.767,266.044 789.600,267.200 789.600 C 268.356 789.600,268.800 789.433,268.800 789.000 C 268.800 788.627,269.178 788.400,269.800 788.400 C 270.350 788.400,270.800 788.220,270.800 788.000 C 270.800 787.780,271.070 787.600,271.400 787.600 C 271.773 787.600,272.000 787.222,272.000 786.600 C 272.000 786.050,272.180 785.600,272.400 785.600 C 272.620 785.600,272.800 784.880,272.800 784.000 C 272.800 782.844,272.967 782.400,273.400 782.400 C 273.889 782.400,274.000 781.733,274.000 778.800 C 274.000 775.867,274.111 775.200,274.600 775.200 C 275.132 775.200,275.200 756.400,275.200 608.400 L 275.200 441.600 325.600 441.600 C 358.933 441.600,376.000 441.465,376.000 441.200 C 376.000 440.942,380.267 440.800,388.000 440.800 L 400.000 440.800 400.000 350.600 L 400.000 260.400 337.600 260.400 L 275.200 260.400 275.200 216.200 C 275.200 187.000,275.336 172.000,275.600 172.000 C 275.820 172.000,276.000 171.730,276.000 171.400 C 276.000 170.967,276.444 170.800,277.600 170.800 C 278.756 170.800,279.200 170.633,279.200 170.200 C 279.200 169.827,279.578 169.600,280.200 169.600 C 280.750 169.600,281.200 169.420,281.200 169.200 C 281.200 168.980,281.470 168.800,281.800 168.800 C 282.130 168.800,282.400 168.530,282.400 168.200 C 282.400 167.827,282.778 167.600,283.400 167.600 C 284.200 167.600,284.400 167.400,284.400 166.600 C 284.400 165.978,284.627 165.600,285.000 165.600 C 285.330 165.600,285.600 165.330,285.600 165.000 C 285.600 164.670,285.780 164.400,286.000 164.400 C 286.220 164.400,286.400 163.950,286.400 163.400 C 286.400 162.778,286.627 162.400,287.000 162.400 C 287.421 162.400,287.600 161.975,287.600 160.971 C 287.600 159.161,288.361 158.400,290.171 158.400 C 291.175 158.400,291.600 158.221,291.600 157.800 C 291.600 157.470,291.870 157.200,292.200 157.200 C 292.530 157.200,292.800 157.020,292.800 156.800 C 292.800 156.574,293.933 156.400,295.400 156.400 C 297.444 156.400,298.000 156.272,298.000 155.800 C 298.000 155.367,298.444 155.200,299.600 155.200 C 300.480 155.200,301.200 155.007,301.200 154.771 C 301.200 154.218,302.218 153.200,302.771 153.200 C 303.007 153.200,303.200 153.007,303.200 152.771 C 303.200 152.218,304.218 151.200,304.771 151.200 C 305.007 151.200,305.200 150.480,305.200 149.600 C 305.200 148.444,305.367 148.000,305.800 148.000 C 306.272 148.000,306.400 147.444,306.400 145.400 C 306.400 143.933,306.574 142.800,306.800 142.800 C 307.020 142.800,307.200 142.530,307.200 142.200 C 307.200 141.670,312.622 141.600,353.600 141.600 L 400.000 141.600 400.000 70.800 L 400.000 0.000 300.000 0.000 L 200.000 0.000 200.000 4.600 " stroke="none" fill="#ffffff" fill-rule="evenodd"></path><path id="path3" d="M200.000 4.600 L 200.000 9.200 190.600 9.200 C 182.511 9.200,181.200 9.284,181.200 9.800 C 181.200 10.233,180.756 10.400,179.600 10.400 C 178.444 10.400,178.000 10.567,178.000 11.000 C 178.000 11.330,177.820 11.600,177.600 11.600 C 177.380 11.600,177.200 12.230,177.200 13.000 C 177.200 13.978,177.019 14.400,176.600 14.400 C 176.094 14.400,176.000 15.311,176.000 20.200 L 176.000 26.000 169.200 26.000 C 163.422 26.000,162.400 26.090,162.400 26.600 C 162.400 26.973,162.022 27.200,161.400 27.200 C 160.850 27.200,160.400 27.380,160.400 27.600 C 160.400 27.820,160.130 28.000,159.800 28.000 C 159.328 28.000,159.200 28.556,159.200 30.600 C 159.200 32.067,159.026 33.200,158.800 33.200 C 158.580 33.200,158.400 33.470,158.400 33.800 C 158.400 34.130,158.130 34.400,157.800 34.400 C 157.470 34.400,157.200 34.670,157.200 35.000 C 157.200 35.373,156.822 35.600,156.200 35.600 C 155.650 35.600,155.200 35.780,155.200 36.000 C 155.200 36.220,154.930 36.400,154.600 36.400 C 154.270 36.400,154.000 36.593,154.000 36.829 C 154.000 37.382,152.982 38.400,152.429 38.400 C 152.193 38.400,152.000 38.863,152.000 39.429 C 152.000 40.483,151.192 41.600,150.429 41.600 C 150.193 41.600,150.000 41.870,150.000 42.200 C 150.000 42.672,149.444 42.800,147.400 42.800 C 145.933 42.800,144.800 42.974,144.800 43.200 C 144.800 43.420,144.530 43.600,144.200 43.600 C 143.800 43.600,143.600 44.000,143.600 44.800 C 143.600 45.460,143.420 46.000,143.200 46.000 C 142.949 46.000,142.800 48.467,142.800 52.600 L 142.800 59.200 137.600 59.200 C 133.244 59.200,132.400 59.297,132.400 59.800 C 132.400 60.233,131.956 60.400,130.800 60.400 C 129.644 60.400,129.200 60.567,129.200 61.000 C 129.200 61.330,129.007 61.600,128.771 61.600 C 127.917 61.600,127.200 62.774,127.200 64.171 C 127.200 65.175,127.021 65.600,126.600 65.600 C 126.078 65.600,126.000 67.378,126.000 79.200 L 126.000 92.800 122.400 92.800 C 120.267 92.800,118.800 92.963,118.800 93.200 C 118.800 93.426,117.667 93.600,116.200 93.600 C 114.156 93.600,113.600 93.728,113.600 94.200 C 113.600 94.530,113.330 94.800,113.000 94.800 C 112.670 94.800,112.400 94.993,112.400 95.229 C 112.400 95.782,111.382 96.800,110.829 96.800 C 110.568 96.800,110.400 97.818,110.400 99.400 C 110.400 101.444,110.272 102.000,109.800 102.000 C 109.269 102.000,109.200 111.067,109.200 181.200 L 109.200 260.400 54.600 260.400 L 0.000 260.400 0.000 351.000 L 0.000 441.600 54.600 441.600 L 109.200 441.600 109.200 611.000 C 109.200 761.311,109.268 780.400,109.800 780.400 C 110.280 780.400,110.400 781.000,110.400 783.400 C 110.400 785.800,110.520 786.400,111.000 786.400 C 111.373 786.400,111.600 786.778,111.600 787.400 C 111.600 787.950,111.780 788.400,112.000 788.400 C 112.220 788.400,112.400 788.670,112.400 789.000 C 112.400 789.373,112.778 789.600,113.400 789.600 C 114.022 789.600,114.400 789.827,114.400 790.200 C 114.400 790.683,115.022 790.800,117.600 790.800 C 119.467 790.800,120.800 790.967,120.800 791.200 C 120.800 791.465,143.667 791.600,188.600 791.600 C 233.533 791.600,256.400 791.465,256.400 791.200 C 256.400 790.957,258.200 790.800,261.000 790.800 C 264.822 790.800,265.600 790.699,265.600 790.200 C 265.600 789.767,266.044 789.600,267.200 789.600 C 268.356 789.600,268.800 789.433,268.800 789.000 C 268.800 788.627,269.178 788.400,269.800 788.400 C 270.350 788.400,270.800 788.220,270.800 788.000 C 270.800 787.780,271.070 787.600,271.400 787.600 C 271.773 787.600,272.000 787.222,272.000 786.600 C 272.000 786.050,272.180 785.600,272.400 785.600 C 272.620 785.600,272.800 784.880,272.800 784.000 C 272.800 782.844,272.967 782.400,273.400 782.400 C 273.889 782.400,274.000 781.733,274.000 778.800 C 274.000 775.867,274.111 775.200,274.600 775.200 C 275.132 775.200,275.200 756.400,275.200 608.400 L 275.200 441.600 325.600 441.600 C 358.933 441.600,376.000 441.465,376.000 441.200 C 376.000 440.942,380.267 440.800,388.000 440.800 L 400.000 440.800 400.000 350.600 L 400.000 260.400 337.600 260.400 L 275.200 260.400 275.200 216.200 C 275.200 187.000,275.336 172.000,275.600 172.000 C 275.820 172.000,276.000 171.730,276.000 171.400 C 276.000 170.967,276.444 170.800,277.600 170.800 C 278.756 170.800,279.200 170.633,279.200 170.200 C 279.200 169.827,279.578 169.600,280.200 169.600 C 280.750 169.600,281.200 169.420,281.200 169.200 C 281.200 168.980,281.470 168.800,281.800 168.800 C 282.130 168.800,282.400 168.530,282.400 168.200 C 282.400 167.827,282.778 167.600,283.400 167.600 C 284.200 167.600,284.400 167.400,284.400 166.600 C 284.400 165.978,284.627 165.600,285.000 165.600 C 285.330 165.600,285.600 165.330,285.600 165.000 C 285.600 164.670,285.780 164.400,286.000 164.400 C 286.220 164.400,286.400 163.950,286.400 163.400 C 286.400 162.778,286.627 162.400,287.000 162.400 C 287.421 162.400,287.600 161.975,287.600 160.971 C 287.600 159.161,288.361 158.400,290.171 158.400 C 291.175 158.400,291.600 158.221,291.600 157.800 C 291.600 157.470,291.870 157.200,292.200 157.200 C 292.530 157.200,292.800 157.020,292.800 156.800 C 292.800 156.574,293.933 156.400,295.400 156.400 C 297.444 156.400,298.000 156.272,298.000 155.800 C 298.000 155.367,298.444 155.200,299.600 155.200 C 300.480 155.200,301.200 155.007,301.200 154.771 C 301.200 154.218,302.218 153.200,302.771 153.200 C 303.007 153.200,303.200 153.007,303.200 152.771 C 303.200 152.218,304.218 151.200,304.771 151.200 C 305.007 151.200,305.200 150.480,305.200 149.600 C 305.200 148.444,305.367 148.000,305.800 148.000 C 306.272 148.000,306.400 147.444,306.400 145.400 C 306.400 143.933,306.574 142.800,306.800 142.800 C 307.020 142.800,307.200 142.530,307.200 142.200 C 307.200 141.670,312.622 141.600,353.600 141.600 L 400.000 141.600 400.000 70.800 L 400.000 0.000 300.000 0.000 L 200.000 0.000 200.000 4.600 " stroke="none" fill="#ffffff" fill-rule="evenodd"></path><path id="path4" d="M200.000 4.600 L 200.000 9.200 190.600 9.200 C 182.511 9.200,181.200 9.284,181.200 9.800 C 181.200 10.233,180.756 10.400,179.600 10.400 C 178.444 10.400,178.000 10.567,178.000 11.000 C 178.000 11.330,177.820 11.600,177.600 11.600 C 177.380 11.600,177.200 12.230,177.200 13.000 C 177.200 13.978,177.019 14.400,176.600 14.400 C 176.094 14.400,176.000 15.311,176.000 20.200 L 176.000 26.000 169.200 26.000 C 163.422 26.000,162.400 26.090,162.400 26.600 C 162.400 26.973,162.022 27.200,161.400 27.200 C 160.850 27.200,160.400 27.380,160.400 27.600 C 160.400 27.820,160.130 28.000,159.800 28.000 C 159.328 28.000,159.200 28.556,159.200 30.600 C 159.200 32.067,159.026 33.200,158.800 33.200 C 158.580 33.200,158.400 33.470,158.400 33.800 C 158.400 34.130,158.130 34.400,157.800 34.400 C 157.470 34.400,157.200 34.670,157.200 35.000 C 157.200 35.373,156.822 35.600,156.200 35.600 C 155.650 35.600,155.200 35.780,155.200 36.000 C 155.200 36.220,154.930 36.400,154.600 36.400 C 154.270 36.400,154.000 36.593,154.000 36.829 C 154.000 37.382,152.982 38.400,152.429 38.400 C 152.193 38.400,152.000 38.863,152.000 39.429 C 152.000 40.483,151.192 41.600,150.429 41.600 C 150.193 41.600,150.000 41.870,150.000 42.200 C 150.000 42.672,149.444 42.800,147.400 42.800 C 145.933 42.800,144.800 42.974,144.800 43.200 C 144.800 43.420,144.530 43.600,144.200 43.600 C 143.800 43.600,143.600 44.000,143.600 44.800 C 143.600 45.460,143.420 46.000,143.200 46.000 C 142.949 46.000,142.800 48.467,142.800 52.600 L 142.800 59.200 137.600 59.200 C 133.244 59.200,132.400 59.297,132.400 59.800 C 132.400 60.233,131.956 60.400,130.800 60.400 C 129.644 60.400,129.200 60.567,129.200 61.000 C 129.200 61.330,129.007 61.600,128.771 61.600 C 127.917 61.600,127.200 62.774,127.200 64.171 C 127.200 65.175,127.021 65.600,126.600 65.600 C 126.078 65.600,126.000 67.378,126.000 79.200 L 126.000 92.800 122.400 92.800 C 120.267 92.800,118.800 92.963,118.800 93.200 C 118.800 93.426,117.667 93.600,116.200 93.600 C 114.156 93.600,113.600 93.728,113.600 94.200 C 113.600 94.530,113.330 94.800,113.000 94.800 C 112.670 94.800,112.400 94.993,112.400 95.229 C 112.400 95.782,111.382 96.800,110.829 96.800 C 110.568 96.800,110.400 97.818,110.400 99.400 C 110.400 101.444,110.272 102.000,109.800 102.000 C 109.269 102.000,109.200 111.067,109.200 181.200 L 109.200 260.400 54.600 260.400 L 0.000 260.400 0.000 351.000 L 0.000 441.600 54.600 441.600 L 109.200 441.600 109.200 611.000 C 109.200 761.311,109.268 780.400,109.800 780.400 C 110.280 780.400,110.400 781.000,110.400 783.400 C 110.400 785.800,110.520 786.400,111.000 786.400 C 111.373 786.400,111.600 786.778,111.600 787.400 C 111.600 787.950,111.780 788.400,112.000 788.400 C 112.220 788.400,112.400 788.670,112.400 789.000 C 112.400 789.373,112.778 789.600,113.400 789.600 C 114.022 789.600,114.400 789.827,114.400 790.200 C 114.400 790.683,115.022 790.800,117.600 790.800 C 119.467 790.800,120.800 790.967,120.800 791.200 C 120.800 791.465,143.667 791.600,188.600 791.600 C 233.533 791.600,256.400 791.465,256.400 791.200 C 256.400 790.957,258.200 790.800,261.000 790.800 C 264.822 790.800,265.600 790.699,265.600 790.200 C 265.600 789.767,266.044 789.600,267.200 789.600 C 268.356 789.600,268.800 789.433,268.800 789.000 C 268.800 788.627,269.178 788.400,269.800 788.400 C 270.350 788.400,270.800 788.220,270.800 788.000 C 270.800 787.780,271.070 787.600,271.400 787.600 C 271.773 787.600,272.000 787.222,272.000 786.600 C 272.000 786.050,272.180 785.600,272.400 785.600 C 272.620 785.600,272.800 784.880,272.800 784.000 C 272.800 782.844,272.967 782.400,273.400 782.400 C 273.889 782.400,274.000 781.733,274.000 778.800 C 274.000 775.867,274.111 775.200,274.600 775.200 C 275.132 775.200,275.200 756.400,275.200 608.400 L 275.200 441.600 325.600 441.600 C 358.933 441.600,376.000 441.465,376.000 441.200 C 376.000 440.942,380.267 440.800,388.000 440.800 L 400.000 440.800 400.000 350.600 L 400.000 260.400 337.600 260.400 L 275.200 260.400 275.200 216.200 C 275.200 187.000,275.336 172.000,275.600 172.000 C 275.820 172.000,276.000 171.730,276.000 171.400 C 276.000 170.967,276.444 170.800,277.600 170.800 C 278.756 170.800,279.200 170.633,279.200 170.200 C 279.200 169.827,279.578 169.600,280.200 169.600 C 280.750 169.600,281.200 169.420,281.200 169.200 C 281.200 168.980,281.470 168.800,281.800 168.800 C 282.130 168.800,282.400 168.530,282.400 168.200 C 282.400 167.827,282.778 167.600,283.400 167.600 C 284.200 167.600,284.400 167.400,284.400 166.600 C 284.400 165.978,284.627 165.600,285.000 165.600 C 285.330 165.600,285.600 165.330,285.600 165.000 C 285.600 164.670,285.780 164.400,286.000 164.400 C 286.220 164.400,286.400 163.950,286.400 163.400 C 286.400 162.778,286.627 162.400,287.000 162.400 C 287.421 162.400,287.600 161.975,287.600 160.971 C 287.600 159.161,288.361 158.400,290.171 158.400 C 291.175 158.400,291.600 158.221,291.600 157.800 C 291.600 157.470,291.870 157.200,292.200 157.200 C 292.530 157.200,292.800 157.020,292.800 156.800 C 292.800 156.574,293.933 156.400,295.400 156.400 C 297.444 156.400,298.000 156.272,298.000 155.800 C 298.000 155.367,298.444 155.200,299.600 155.200 C 300.480 155.200,301.200 155.007,301.200 154.771 C 301.200 154.218,302.218 153.200,302.771 153.200 C 303.007 153.200,303.200 153.007,303.200 152.771 C 303.200 152.218,304.218 151.200,304.771 151.200 C 305.007 151.200,305.200 150.480,305.200 149.600 C 305.200 148.444,305.367 148.000,305.800 148.000 C 306.272 148.000,306.400 147.444,306.400 145.400 C 306.400 143.933,306.574 142.800,306.800 142.800 C 307.020 142.800,307.200 142.530,307.200 142.200 C 307.200 141.670,312.622 141.600,353.600 141.600 L 400.000 141.600 400.000 70.800 L 400.000 0.000 300.000 0.000 L 200.000 0.000 200.000 4.600 " stroke="none" fill="#ffffff" fill-rule="evenodd"></path></g></svg>